<?xml version="1.0" encoding="UTF-8" standalone="no"?>
<svg
   width="1605"
   height="610"
   viewBox="0 0 424.65625 161.39583"
   version="1.1"
   id="svg8"
   inkscape:version="1.1 (c68e22c387, 2021-05-23)"
   sodipodi:docname="cover-img.svg"
   xmlns:inkscape="http://www.inkscape.org/namespaces/inkscape"
   xmlns:sodipodi="http://sodipodi.sourceforge.net/DTD/sodipodi-0.dtd"
   xmlns="http://www.w3.org/2000/svg"
   xmlns:svg="http://www.w3.org/2000/svg"
   xmlns:rdf="http://www.w3.org/1999/02/22-rdf-syntax-ns#"
   xmlns:cc="http://creativecommons.org/ns#"
   xmlns:dc="http://purl.org/dc/elements/1.1/">
  <defs
     id="defs2" />
  <sodipodi:namedview
     id="base"
     pagecolor="#1b1a1a"
     bordercolor="#666666"
     borderopacity="1.0"
     inkscape:pageopacity="0"
     inkscape:pageshadow="2"
     inkscape:zoom="0.35"
     inkscape:cx="1121.4286"
     inkscape:cy="641.42857"
     inkscape:document-units="px"
     inkscape:current-layer="svg8"
     inkscape:document-rotation="0"
     showgrid="false"
     fit-margin-top="0"
     fit-margin-left="0"
     fit-margin-right="0"
     fit-margin-bottom="0"
     inkscape:window-width="1267"
     inkscape:window-height="729"
     inkscape:window-x="26"
     inkscape:window-y="0"
     inkscape:window-maximized="0"
     inkscape:pagecheckerboard="0"
     units="px"
     height="610px" />
  <metadata
     id="metadata5">
    <rdf:RDF>
      <cc:Work
         rdf:about="">
        <dc:format>image/svg+xml</dc:format>
        <dc:type
           rdf:resource="http://purl.org/dc/dcmitype/StillImage" />
      </cc:Work>
    </rdf:RDF>
  </metadata>
  <path
     style="fill:#ff033b;fill-opacity:1;stroke-width:0.264583"
     d="m 31.949549,160.87295 c -0.0781,-0.2034 -0.22503,-1.21334 -0.32662,-2.24432 -0.27065,-2.74664 0.0683,-2.7327 3.36933,0.13864 l 2.69388,2.34321 -1.00849,0.0842 c -0.81043,0.0677 -1.1705,-0.0649 -1.83345,-0.67525 -0.45374,-0.41771 -1.04837,-0.92914 -1.32141,-1.13652 -0.47215,-0.35861 -0.48719,-0.32234 -0.30748,0.74141 0.17995,1.06512 0.15766,1.11846 -0.46744,1.11846 -0.36102,0 -0.72027,-0.16642 -0.79832,-0.36982 z m 66.61952,-2.15694 c 1.747281,-1.65649 2.841121,-2.50033 3.241151,-2.50033 1.03283,0 0.68115,0.62439 -1.61284,2.86349 -2.016901,1.96865 -2.308941,2.16241 -3.241141,2.15038 l -1.02452,-0.0132 2.63735,-2.50033 z m 91.418561,1.0054 c -1.11262,-2.68675 -3.60735,-4.8605 -6.02119,-5.24649 -1.37383,-0.21968 -1.76521,-0.48326 -1.55007,-1.04389 0.14246,-0.37126 0.41489,-0.43379 1.45449,-0.3339 2.77162,0.26632 5.45721,2.39557 7.05845,5.59626 1.07758,2.15396 1.12428,2.54938 0.3011,2.54938 -0.49655,0 -0.73227,-0.28855 -1.24278,-1.52136 z m 23.97574,0.92605 c -0.99583,-1.55354 -1.58511,-3.11227 -1.28868,-3.40871 0.51877,-0.51876 1.00598,-0.0739 2.00843,1.83374 0.53491,1.01793 0.97256,1.92267 0.97256,2.01053 0,0.44201 -1.353,0.0938 -1.69231,-0.43556 z m 57.4909,0.52916 c -0.0156,-0.0364 -0.171,-0.92622 -0.34515,-1.97743 -0.30684,-1.85222 -0.17746,-2.71892 0.40587,-2.71892 0.14878,0 1.46619,1.04179 2.92756,2.3151 l 2.65708,2.31511 -0.9893,0.0841 c -0.74293,0.0631 -1.16229,-0.0705 -1.68394,-0.53679 -0.38206,-0.34149 -0.98018,-0.85557 -1.32911,-1.14242 l -0.63447,-0.52154 0.17457,1.12448 c 0.16621,1.0708 0.14282,1.12448 -0.49003,1.12448 -0.36553,0 -0.67742,-0.0298 -0.69308,-0.0662 z m 66.51003,-2.45686 c 1.44243,-1.39747 2.8094,-2.50408 3.09325,-2.50408 1.19245,0 0.84804,0.68182 -1.42955,2.83005 -2.04946,1.93307 -2.44461,2.1959 -3.28885,2.18758 l -0.95951,-0.009 2.58466,-2.50408 z M 73.839009,157.96943 c -5.09197,-2.11744 -7.67896,-5.91305 -6.18129,-9.06914 0.78256,-1.64914 3.31307,-2.41114 5.25525,-1.5825 0.73511,0.31364 0.84854,0.28391 1.53525,-0.40235 1.6141,-1.61303 4.16505,-1.64114 5.65409,-0.0623 1.44249,1.52948 1.51893,4.1514 0.19709,6.75994 -0.80283,1.58431 -3.94321,4.98978 -4.58556,4.97266 -0.23079,-0.006 -1.07446,-0.28349 -1.87483,-0.61632 z m 5.27329,-5.07926 c 1.21362,-2.57835 0.70026,-5.13435 -1.15547,-5.75292 -0.98056,-0.32686 -2.39641,0.33404 -3.0069,1.40356 -0.60919,1.06726 -0.99777,1.15978 -1.94128,0.46222 -1.20833,-0.89336 -2.98536,-0.82373 -3.82275,0.1498 -1.70085,1.97736 0.18489,5.12976 4.25624,7.11518 l 2.11667,1.03221 1.46969,-1.55268 c 0.80832,-0.85397 1.74604,-2.13978 2.0838,-2.85737 z m 233.211661,4.65072 c -4.5479,-2.21956 -6.7032,-5.85496 -5.16814,-8.71723 0.89358,-1.66616 3.41625,-2.38411 5.16763,-1.47069 0.71419,0.37249 0.78431,0.35883 1.2596,-0.24542 0.68475,-0.87051 2.63298,-1.58434 3.805,-1.39415 3.09484,0.50222 4.17394,4.08355 2.35231,7.80682 -0.87985,1.79837 -3.91703,5.07769 -4.69953,5.07422 -0.3098,-0.001 -1.53239,-0.47547 -2.71687,-1.05355 z m 6.17257,-4.68854 c 1.17395,-2.5264 0.77599,-5.01659 -0.90377,-5.65524 -1.11493,-0.42389 -2.09888,-0.0347 -3.2158,1.27197 l -1.03309,1.2086 -0.88836,-0.63319 c -2.00189,-1.42687 -4.46024,-0.46344 -4.46024,1.74799 0,2.1354 2.14696,4.36334 5.68854,5.9031 l 1.32291,0.57516 1.42452,-1.51972 c 0.78349,-0.83584 1.71289,-2.14024 2.06529,-2.89867 z m 103.45332,1.21726 c -0.62648,-0.36445 -0.1262,-1.02893 0.77468,-1.02893 0.49461,0 0.62907,0.14138 0.62907,0.66146 0,0.71966 -0.55057,0.86379 -1.40375,0.36747 z m -271.06417,-0.28809 c -0.22179,-0.22179 -0.3175,-1.6599 -0.3175,-4.77081 0,-3.77165 0.0626,-4.47731 0.40869,-4.61013 0.22479,-0.0863 1.65862,0.39373 3.18632,1.06664 1.52768,0.6729 2.89158,1.22346 3.03088,1.22346 0.1492,0 0.25328,-1.51572 0.25328,-3.68855 0,-3.72212 0.16006,-4.35549 0.93763,-3.71016 0.59503,0.49383 0.56493,8.93388 -0.0327,9.16321 -0.22988,0.0882 -1.56934,-0.34441 -2.97657,-0.96139 -1.40722,-0.61697 -2.70742,-1.18187 -2.88932,-1.25533 -0.25425,-0.10267 -0.33157,0.65305 -0.33434,3.26819 -0.002,1.87096 -0.0754,3.66963 -0.16315,3.99705 -0.17588,0.65629 -0.61436,0.7667 -1.10324,0.27782 z m 239.30682,-0.12348 c -0.097,-0.097 -0.1764,-2.18434 -0.1764,-4.63851 0,-3.75577 0.0639,-4.48664 0.4037,-4.61703 0.22204,-0.0852 1.63521,0.39478 3.14037,1.06663 1.50519,0.67186 2.8118,1.22155 2.90359,1.22155 0.0918,0 0.16692,-1.59276 0.16692,-3.53948 0,-2.82342 0.0803,-3.60611 0.39688,-3.86885 0.31663,-0.26278 0.47712,-0.26278 0.79375,0 0.32112,0.26651 0.39687,1.10182 0.39687,4.37638 0,2.22586 -0.0722,4.23534 -0.1606,4.46552 -0.24318,0.6337 -0.79465,0.51648 -3.6526,-0.77637 -1.44243,-0.6525 -2.72235,-1.18636 -2.84427,-1.18636 -0.12192,0 -0.22169,1.7264 -0.22169,3.83646 0,3.54381 -0.037,3.83645 -0.48506,3.83645 -0.26681,0 -0.56447,-0.0794 -0.66146,-0.17639 z m -153.98751,-0.79375 c -0.097,-0.097 -0.17639,-0.40683 -0.17639,-0.68848 0,-0.85749 2.13452,-8.5062 2.46709,-8.84039 0.29722,-0.29868 8.05069,-1.9364 9.16748,-1.9364 0.35197,0 0.53626,0.17415 0.53626,0.50675 0,0.58537 -2.59469,8.24767 -2.90408,8.57596 -0.11361,0.12055 -2.15581,0.74485 -4.53822,1.38733 -5.08426,1.37111 -4.33916,1.20821 -4.55214,0.99523 z m 5.49647,-2.67777 2.61886,-0.72203 1.04107,-3.12323 c 0.57259,-1.71778 0.99197,-3.17234 0.93195,-3.23236 -0.17559,-0.17559 -6.57909,1.11011 -6.80001,1.36531 -0.11051,0.12765 -0.52437,1.48225 -0.91969,3.01022 -0.39533,1.52797 -0.78435,2.99855 -0.8645,3.26796 -0.1703,0.57247 -0.10079,0.56262 3.99232,-0.56587 z M 0.0207118,151.54764 c 4.34e-4,-0.72925 0.08677,-0.77925 2.447396,-1.41737 l 2.446946,-0.66146 1.110552,-3.24115 c 0.610803,-1.78263 1.027522,-3.24078 0.926041,-3.24034 -0.213828,10e-4 -5.443132,0.9877 -6.35458101,1.19911 -0.54188699,0.12569 -0.60390099,0.0562 -0.52916699,-0.59305 0.08349,-0.72531 0.135603,-0.74529 3.788821,-1.45219 4.480184,-0.86692 4.894792,-0.89059 4.894792,-0.27941 0,0.99794 -2.702479,8.54477 -3.14456,8.78136 -0.249053,0.13329 -1.419991,0.48929 -2.602084,0.7911 -1.182093,0.30182 -2.33721301,0.62088 -2.56693301,0.70903 -0.32049699,0.12299 -0.41756799,-0.0156 -0.41722299,-0.59563 z M 131.52844,148.29735 c -0.52912,-0.98867 0.34315,-1.86094 1.33182,-1.33183 0.57524,0.30786 0.66872,1.04811 0.1925,1.52433 -0.47621,0.47622 -1.21647,0.38273 -1.52432,-0.1925 z m 239.49058,0.1925 c -0.74163,-0.74163 -0.0201,-1.99238 0.96827,-1.67866 0.66683,0.21164 0.90191,0.83993 0.55604,1.48616 -0.30784,0.57523 -1.04809,0.66872 -1.52431,0.1925 z M 33.168919,146.6552 c -1.81146,-0.5097 -3.08503,-3.5283 -2.52366,-5.98151 0.15837,-0.69205 0.26297,-1.28324 0.23245,-1.31376 -0.20402,-0.20401 -3.23967,0.76169 -4.24339,1.34991 -1.20019,0.70336 -1.74322,0.72149 -1.74322,0.0582 0,-1.02904 2.95282,-2.52947 5.39395,-2.74083 1.29272,-0.11193 1.86854,-0.32229 2.86772,-1.04768 1.56062,-1.13299 3.78447,-1.93053 5.38306,-1.93053 0.80301,0 1.48045,-0.18366 1.97413,-0.53518 1.42302,-1.01329 4.09577,-2.09455 5.61395,-2.27114 1.42511,-0.16576 1.52135,-0.14182 1.52135,0.37844 0,0.43133 -0.25118,0.62046 -1.12447,0.84665 -4.46007,1.15522 -4.9991,1.41851 -4.01617,1.96173 1.19775,0.66194 2.71568,2.4433 3.00845,3.53057 1.06633,3.96006 -3.14629,6.61758 -5.76399,3.63618 -1.23346,-1.40483 -1.63765,-3.2901 -1.10417,-5.15023 0.14303,-0.49872 0.20427,-0.96255 0.13609,-1.03074 -0.21316,-0.21316 -3.43922,0.7591 -4.22149,1.27225 l -0.74504,0.48874 1.06955,0.54565 c 1.86084,0.94933 2.89531,2.85148 2.62931,4.83467 -0.3127,2.33138 -2.22465,3.69504 -4.34441,3.09859 z m 2.03049,-1.54643 c 0.64292,-0.34408 1.08907,-1.69 0.89007,-2.68505 -0.35818,-1.7909 -2.93629,-3.51132 -3.69892,-2.46836 -0.7897,1.07998 -0.24295,4.8305 0.7632,5.23532 0.56898,0.22893 1.53729,0.19016 2.04565,-0.0819 z m 8.30858,-3.04986 c 1.42033,-1.42034 0.36252,-4.39697 -1.89824,-5.34158 -0.49547,-0.20702 -0.93138,-0.33966 -0.9687,-0.29475 -0.41628,0.50087 -0.6687,1.48053 -0.6687,2.59519 0,2.11941 0.87167,3.43958 2.27106,3.43958 0.47638,0 1.04544,-0.1793 1.26458,-0.39844 z m 228.222001,3.91512 c -1.55866,-1.31154 -2.26684,-3.93317 -1.56273,-5.78511 0.14959,-0.39346 0.20984,-0.77751 0.1339,-0.85344 -0.3035,-0.30351 -3.08591,0.5529 -4.15888,1.28007 -0.62799,0.42561 -1.29063,0.776 -1.47254,0.77865 -0.62539,0.009 -0.32966,-1.00738 0.49496,-1.70125 1.17541,-0.98904 2.48923,-1.47604 4.46598,-1.65541 1.34652,-0.12218 1.93059,-0.32109 2.69095,-0.9164 1.40568,-1.10056 3.21714,-1.82998 4.93569,-1.98747 1.0753,-0.0985 2.25251,-0.50852 4.14732,-1.44439 2.0741,-1.02441 2.96029,-1.31886 4.10104,-1.3626 1.2881,-0.0494 1.45521,0.004 1.45521,0.46302 0,0.43059 -0.34922,0.59844 -2.05364,0.98701 -1.12951,0.25751 -2.41443,0.65477 -2.85539,0.8828 l -0.80176,0.4146 1.26791,0.84735 c 3.55356,2.3749 3.14891,7.91172 -0.57822,7.91172 -2.59189,0 -4.67614,-3.37348 -3.87559,-6.27286 0.15586,-0.56449 0.22878,-1.08093 0.16208,-1.14766 -0.20857,-0.20856 -3.43731,0.76221 -4.20071,1.263 l -0.72694,0.47685 1.1857,0.69487 c 2.75138,1.6124 3.37182,5.34051 1.1938,7.17319 -1.12633,0.94775 -2.78979,0.92814 -3.94814,-0.0465 z m 3.12621,-1.22098 c 1.26712,-1.14058 0.47022,-3.97589 -1.36321,-4.85019 -1.1942,-0.56948 -1.65687,-0.34521 -2.01253,0.9755 -0.62904,2.33612 0.81394,5.08914 2.38356,4.54751 0.21828,-0.0753 0.66476,-0.37809 0.99218,-0.67282 z m 8.342,-3.13182 c 0.97983,-1.31807 -0.0898,-3.87387 -2.01655,-4.81813 -1.27741,-0.62605 -1.54548,-0.38513 -1.70445,1.53168 -0.14541,1.75364 0.0169,2.48596 0.76142,3.43229 0.75533,0.96026 2.18988,0.88958 2.95958,-0.14584 z m -167.13919,4.30637 c -0.0795,-0.12865 -0.2235,-1.43834 -0.31997,-2.91042 l -0.1754,-2.6765 h -2.88905 c -2.84471,0 -2.88775,-0.009 -2.8045,-0.59531 0.0671,-0.47238 0.27578,-0.60865 1.01059,-0.6599 0.50932,-0.0355 1.78532,-0.13461 2.83554,-0.22019 l 1.9095,-0.15561 0.0749,-2.82251 c 0.0695,-2.62117 0.11263,-2.82252 0.60405,-2.82252 0.49169,0 0.53448,0.20142 0.60426,2.84427 l 0.0751,2.84427 h 3.01814 c 3.05292,0 3.662,0.18788 3.03976,0.93763 -0.24237,0.29204 -0.98433,0.38529 -3.06549,0.38529 h -2.74573 v 2.72521 c 0,1.76683 -0.11166,2.83686 -0.3175,3.04271 -0.37682,0.37682 -0.65605,0.40414 -0.85417,0.0836 z M 355.4086,145.844 c -0.20376,-0.20375 -0.3175,-1.24648 -0.3175,-2.91042 v -2.59292 h -2.88211 c -2.06443,0 -2.9166,-0.0938 -3.00373,-0.33073 -0.27427,-0.74579 0.12427,-0.99221 1.6084,-0.99448 0.82463,-10e-4 2.12053,-0.0769 2.87978,-0.16813 l 1.38049,-0.16583 0.0747,-2.80844 c 0.0694,-2.60713 0.11268,-2.80843 0.60391,-2.80843 0.49159,0 0.53448,0.20139 0.60417,2.83569 l 0.075,2.83569 2.9677,0.0747 c 2.76641,0.0697 2.9677,0.11062 2.9677,0.60389 0,0.48908 -0.22048,0.53919 -2.91041,0.66146 l -2.91042,0.13229 0.0919,2.58764 c 0.0629,1.7694 -0.0101,2.71062 -0.23082,2.97656 -0.39161,0.47187 -0.5846,0.48566 -0.99883,0.0714 z m -142.40521,-1.22509 c -1.67704,-0.67955 -3.17953,-1.32224 -3.33886,-1.42822 -0.15933,-0.10598 -0.36803,-1.2966 -0.46378,-2.64583 -0.0957,-1.34924 -0.24185,-3.06031 -0.32467,-3.80237 l -0.15058,-1.34923 2.80489,-2.16529 c 1.5427,-1.19092 2.96167,-2.22546 3.15327,-2.29898 0.34874,-0.13382 6.43752,2.34507 6.91279,2.81436 0.13872,0.13698 0.44389,1.87211 0.67814,3.85583 0.49568,4.19751 0.84133,3.47068 -3.0655,6.446 -1.33731,1.01845 -2.59461,1.84218 -2.794,1.8305 -0.19939,-0.0117 -1.73466,-0.57722 -3.4117,-1.25677 z m 2.48269,-2.88918 c -0.19148,-1.27331 -0.35071,-2.43568 -0.35385,-2.58305 -0.007,-0.31087 -4.48192,-2.35551 -4.69322,-2.1442 -0.0778,0.0778 -0.0372,1.29481 0.0902,2.70454 l 0.23164,2.56314 2.24896,0.87713 c 1.23692,0.48242 2.37842,0.88172 2.53666,0.88734 0.20242,0.007 0.18451,-0.67605 -0.0604,-2.3049 z m 5.71768,-1.38074 c -0.0164,-0.81571 -0.52063,-4.32949 -0.63808,-4.44694 -0.0892,-0.0892 -2.68992,1.65484 -4.0585,2.72162 -0.041,0.0319 0.057,0.93737 0.21777,2.01203 0.53085,3.54826 0.2607,3.3717 2.50987,1.64039 1.08741,-0.83704 1.97344,-1.70423 1.96894,-1.9271 z m -3.34131,-4.40256 c 1.13165,-0.8161 2.0208,-1.5163 1.9759,-1.55599 -0.0449,-0.0397 -1.1376,-0.52328 -2.42822,-1.07465 -1.56691,-0.66939 -2.46012,-0.92162 -2.68826,-0.75912 -1.94492,1.38539 -3.55012,2.66322 -3.55639,2.8311 -0.009,0.24442 3.6468,1.98922 4.23409,2.02073 0.22294,0.012 1.33124,-0.64597 2.46288,-1.46207 z M 77.718109,133.26308 c -0.2023,-0.40018 -0.57609,-1.36465 -0.83064,-2.14327 -0.40732,-1.24591 -0.41616,-1.46232 -0.0736,-1.80483 0.34251,-0.34251 0.44012,-0.33823 0.81409,0.0357 0.65172,0.65172 1.54766,3.87018 1.19549,4.29452 -0.42883,0.51672 -0.69792,0.42368 -1.1053,-0.38216 z m 108.701111,-2.18281 c -0.70762,-1.60073 -1.38622,-2.91042 -1.50799,-2.91042 -0.12178,0 -1.39651,0.58969 -2.83274,1.31042 -3.03106,1.52106 -2.72999,1.62672 -4.4881,-1.575 -0.5993,-1.09141 -1.18595,-2.13195 -1.30366,-2.31231 -0.16031,-0.24562 -0.89952,-0.0263 -2.94504,0.87399 -1.50205,0.66105 -2.96142,1.16581 -3.24304,1.12168 -0.36149,-0.0566 -0.82167,-0.77699 -1.56512,-2.44997 -0.57919,-1.30335 -1.1087,-2.42536 -1.17669,-2.49335 -0.068,-0.068 -1.42887,0.44697 -3.02418,1.14434 -2.86074,1.25054 -3.83424,1.38263 -3.6637,0.49709 0.093,-0.48289 6.73509,-3.5409 7.2603,-3.34263 0.16251,0.0613 0.7482,1.14668 1.30155,2.41186 0.55335,1.26519 1.09895,2.4074 1.21246,2.53826 0.117,0.13488 1.46522,-0.30619 3.11303,-1.01843 1.59866,-0.691 3.02632,-1.1824 3.17258,-1.092 0.14626,0.0904 0.88927,1.29282 1.65114,2.67207 0.76188,1.37925 1.48555,2.50773 1.60817,2.50773 0.12261,0 1.39012,-0.58572 2.81669,-1.30161 1.42656,-0.71588 2.71982,-1.22189 2.8739,-1.12447 0.43826,0.27709 3.28431,6.72794 3.1373,7.11102 -0.0722,0.18818 -0.35156,0.34214 -0.62078,0.34214 -0.36863,0 -0.80718,-0.71864 -1.77608,-2.91041 z m 130.89986,2.57968 c -0.14629,-0.1819 -0.5437,-1.20081 -0.88316,-2.26425 -0.53157,-1.66537 -0.5634,-1.9669 -0.22944,-2.17411 0.59364,-0.36833 1.22086,0.44025 1.80615,2.32844 0.45355,1.46315 0.46834,1.70674 0.12454,2.05052 -0.47273,0.47276 -0.48496,0.47365 -0.81809,0.0594 z m -246.324341,-1.432 c -0.6178,-0.24928 -0.30987,-1.01192 0.98053,-2.42841 1.22803,-1.34804 2.06551,-1.68717 2.31509,-0.93749 0.10138,0.30453 -2.47619,3.55751 -2.78935,3.52024 -0.0965,-0.0115 -0.32437,-0.0809 -0.50627,-0.15434 z m 239.293591,-0.001 c -0.38907,-0.38906 -0.12031,-0.99548 1.04637,-2.3611 1.30017,-1.52187 2.22063,-1.86978 2.21166,-0.83595 -0.003,0.34618 -0.5551,1.17662 -1.31922,1.98437 -1.29828,1.37243 -1.59406,1.55744 -1.93881,1.21268 z m 108.38238,-1.63312 c -0.14972,-0.0962 -0.90238,-1.30596 -1.67253,-2.68841 -0.77015,-1.38245 -1.42214,-2.54411 -1.44886,-2.58146 -0.0267,-0.0374 -1.28606,0.47329 -2.79855,1.13478 -1.51249,0.66148 -2.98397,1.16829 -3.26999,1.12625 -0.37687,-0.0554 -0.81351,-0.75014 -1.58617,-2.52384 -0.58637,-1.34607 -1.18775,-2.44548 -1.33639,-2.44314 -0.14864,0.002 -1.45039,0.53812 -2.89282,1.19062 -2.99069,1.35289 -3.67366,1.47049 -3.5474,0.6108 0.0674,-0.45857 0.77917,-0.8838 3.50136,-2.09172 1.87926,-0.83388 3.55325,-1.4638 3.71996,-1.39981 0.16674,0.064 0.76581,1.19651 1.33128,2.51674 0.56547,1.32023 1.1598,2.45095 1.32075,2.51271 0.16094,0.0618 1.5236,-0.43348 3.0281,-1.10055 1.50453,-0.66706 2.86822,-1.1619 3.03046,-1.09964 0.16224,0.0623 0.92803,1.25921 1.70175,2.65989 0.77372,1.40069 1.52061,2.5467 1.65981,2.5467 0.13917,0 0.9938,-0.3861 1.89915,-0.85799 0.90535,-0.4719 1.7354,-0.89854 1.84454,-0.94809 0.10914,-0.0495 0.19844,0.25048 0.19844,0.66674 0,0.68471 -0.21016,0.86106 -2.20533,1.85056 -1.21293,0.60155 -2.32783,1.01504 -2.47756,0.91886 z m -337.503571,-2.4842 c -1.81685,-0.47095 -2.05496,-0.6023 -1.98438,-1.09467 0.11198,-0.78111 0.68626,-0.8149 2.85792,-0.16815 1.62935,0.48524 1.87391,0.63718 1.80265,1.11993 -0.11102,0.75218 -0.28898,0.76168 -2.67619,0.14289 z m 239.329691,-0.003 c -1.6822,-0.47844 -1.91823,-0.62206 -1.91823,-1.16724 0,-0.77329 0.58499,-0.80296 2.71579,-0.13772 1.85785,0.58003 2.26504,0.91854 1.79144,1.48921 -0.40005,0.48202 -0.1951,0.4966 -2.589,-0.18425 z M 70.465579,125.59295 c -1.73197,-0.35931 -1.91823,-0.45905 -1.91823,-1.02719 0,-0.73895 0.37331,-0.77605 2.77812,-0.27613 1.40219,0.2915 1.5875,0.4034 1.5875,0.9586 0,0.80349 -0.14059,0.82329 -2.44739,0.34472 z m 239.465141,0.003 c -1.82724,-0.37933 -2.42993,-0.80911 -2.03372,-1.45021 0.18045,-0.29198 1.84044,-0.13742 3.59317,0.33454 0.83831,0.22573 1.02021,0.3858 0.95335,0.83891 -0.10745,0.72818 -0.25829,0.74479 -2.5128,0.27676 z M 29.801079,123.96111 c -0.0915,-0.14812 -0.28372,-1.60579 -0.42706,-3.23927 -0.14334,-1.63348 -0.31101,-3.02035 -0.37259,-3.08193 -0.0616,-0.0616 -0.85612,0.13934 -1.76565,0.44649 -2.05116,0.69269 -2.87197,0.71989 -2.87923,0.0954 -0.008,-0.73052 3.49073,-11.53327 3.87072,-11.94967 0.64227,-0.70381 1.08001,0.13337 1.43975,2.75351 0.18886,1.37562 0.41929,2.62394 0.51206,2.77404 0.10897,0.17632 0.86092,0.0374 2.12462,-0.39236 3.07001,-1.04418 3.06203,-1.12986 0.59384,6.37569 -1.47515,4.48579 -2.20309,6.34736 -2.50476,6.40546 -0.23389,0.045 -0.50016,-0.0393 -0.5917,-0.1874 z m 2.21492,-7.96934 c 0.57809,-1.80513 1.01809,-3.31503 0.97777,-3.35535 -0.0403,-0.0403 -0.81086,0.17577 -1.71231,0.48019 -0.90145,0.30443 -1.80846,0.48847 -2.01559,0.40899 -0.23686,-0.0909 -0.44381,-0.7387 -0.55777,-1.74596 -0.0996,-0.8808 -0.26277,-1.60145 -0.36248,-1.60145 -0.22378,0 -2.20902,6.36078 -2.03847,6.53133 0.0676,0.0676 0.87896,-0.104 1.8031,-0.38125 0.92415,-0.27725 1.82805,-0.45483 2.00868,-0.39462 0.18063,0.0602 0.32842,0.50139 0.32842,0.98039 0,0.96623 0.28294,2.59441 0.42599,2.45135 0.0504,-0.0504 0.56457,-1.5685 1.14266,-3.37362 z m 46.18718,7.94239 c -0.30576,-0.49474 0.14473,-1.25841 1.47803,-2.50556 1.08436,-1.01428 1.39638,-1.18234 1.71078,-0.92141 0.61652,0.51166 0.46764,0.85179 -1.01286,2.31389 -1.39454,1.37722 -1.86422,1.61748 -2.17595,1.11308 z m 190.804461,-0.71022 c -0.08,-0.55396 -0.22228,-2.05986 -0.31615,-3.34643 -0.14642,-2.00687 -0.23278,-2.32071 -0.60793,-2.20889 -3.07428,0.91643 -4.04099,1.0882 -4.24712,0.75467 -0.25064,-0.40553 3.2602,-11.60634 3.82122,-12.19112 0.67373,-0.70224 1.07712,0.11175 1.43084,2.88726 0.18589,1.4588 0.42873,2.70844 0.53964,2.77698 0.11089,0.0685 1.04876,-0.16351 2.08412,-0.51566 3.00731,-1.02285 3.00205,-1.08017 0.58592,6.39317 -1.74646,5.40205 -2.11383,6.30641 -2.59011,6.37606 -0.46101,0.0674 -0.57959,-0.0893 -0.70043,-0.92604 z m 3.44353,-10.57805 c -0.0455,-0.0455 -0.82034,0.1663 -1.72178,0.47072 -0.90146,0.30443 -1.80676,0.48913 -2.01179,0.41045 -0.21076,-0.0809 -0.44693,-0.69599 -0.54334,-1.41523 -0.29986,-2.23632 -0.43567,-2.12938 -1.57655,1.24136 -0.68966,2.03758 -1.00798,3.33247 -0.82915,3.37289 0.15962,0.0361 1.00462,-0.16016 1.87775,-0.43608 1.90574,-0.60226 2.24896,-0.42295 2.24896,1.17499 0,2.44096 0.33861,2.14054 1.49949,-1.33037 0.62654,-1.87327 1.10192,-3.4432 1.05641,-3.48873 z m 45.0691,10.98578 c 0,-0.33783 0.5952,-1.16465 1.46343,-2.03285 1.32845,-1.32846 1.50165,-1.4252 1.87791,-1.04894 0.53729,0.53728 0.2517,1.08182 -1.33384,2.54332 -1.3343,1.22992 -2.0075,1.41049 -2.0075,0.53847 z m -80.83486,0.14857 c -0.14297,-0.0357 -0.70292,-0.13899 -1.24434,-0.22946 -3.62764,-0.60616 -4.83909,-5.80941 -2.07662,-8.91917 3.12379,-3.5165 9.01415,-0.90735 9.01415,3.99284 0,1.83187 -0.61398,3.0692 -2.01175,4.0542 -0.92372,0.65095 -2.99947,1.27207 -3.68144,1.10159 z m 2.19592,-1.99651 c 1.45241,-0.7031 2.17237,-1.83107 2.17237,-3.40346 0,-1.42742 -0.70235,-2.69601 -1.91383,-3.45674 -1.28163,-0.80478 -3.36934,-0.60113 -4.47263,0.43628 -1.54608,1.45378 -1.96153,3.45024 -1.06559,5.12081 0.96148,1.79279 3.15153,2.33333 5.27968,1.30311 z m -139.465928,1.71181 c -0.686463,-0.68646 0.33019,-2.95178 2.026398,-4.5153 2.28578,-2.10696 5.26883,-3.14245 8.4061,-2.91798 1.80228,0.12895 2.62028,0.48232 2.62028,1.13193 0,0.25196 -0.71534,0.33504 -2.84427,0.33031 -2.27897,-0.005 -3.13767,0.10606 -4.32048,0.55913 -1.97943,0.75821 -3.41028,2.03965 -4.44485,3.98069 -0.83128,1.55964 -1.074028,1.80038 -1.443178,1.43122 z m 239.375428,-0.46366 c -0.67204,-1.75132 2.36694,-5.07549 5.84923,-6.39811 1.78877,-0.6794 6.24459,-0.72126 6.90102,-0.0648 0.76256,0.76254 0.20407,0.96888 -2.60202,0.96136 -2.15236,-0.006 -3.02072,0.11064 -4.21105,0.5645 -1.84775,0.70452 -3.47054,2.11866 -4.40577,3.83932 -0.762,1.40191 -1.27389,1.76886 -1.53141,1.09776 z M 0.0202618,122.46579 c 0,-0.37233 0.34323899,-1.11647 0.76275399,-1.65364 0.41951401,-0.53717 0.83962101,-1.30856 0.93357001,-1.71419 0.24007,-1.03653 -0.247225,-2.62358 -1.03189301,-3.36073 -0.41807099,-0.39276 -0.66443099,-0.91338 -0.66443099,-1.40411 0,-0.7465 0.02549,-0.76341 0.59531299,-0.39479 0.92977601,0.60148 2.22075801,2.68737 2.41498301,3.90199 0.250304,1.56531 -0.226238,3.01819 -1.391869,4.24352 -1.16669201,1.22645 -1.618427,1.33306 -1.618427,0.38195 z m 74.2295072,-0.18292 c -0.7974,-1.92611 -1.04282,-3.11179 -0.71248,-3.44213 0.55374,-0.55374 1.19693,0.15501 1.71609,1.89101 0.26858,0.8981 0.42115,1.80799 0.33904,2.02196 -0.25855,0.67378 -0.97242,0.42343 -1.34265,-0.47084 z m 239.068041,-1.01068 c -0.6228,-1.93369 -0.6,-2.62734 0.0863,-2.62734 0.48358,0 1.02211,1.02012 1.43891,2.72555 0.33975,1.39024 0.24029,1.77237 -0.4613,1.77237 -0.33859,0 -0.62191,-0.49814 -1.06392,-1.87058 z m -180.55925,0.90609 c -0.40676,-0.40675 -0.0785,-1.13085 2.20957,-4.8733 l 2.39161,-3.9119 1.64328,-0.14229 c 0.90381,-0.0783 3.15314,-0.19861 4.99851,-0.26744 2.67149,-0.0996 3.418,-0.0495 3.66324,0.24599 0.24545,0.29574 -0.22112,1.24626 -2.29689,4.67926 l -2.60491,4.30812 -4.91118,0.0718 c -2.70116,0.0395 -4.99311,-0.0101 -5.09323,-0.11024 z m 5.27068,-1.74749 c -0.23796,-0.32743 -0.69081,-1.09697 -1.00634,-1.71011 -0.6429,-1.24932 -0.56005,-1.29464 -1.91688,1.04865 l -0.7277,1.25677 h 2.04178 2.04179 z m 5.81629,-2.64584 c 0.97778,-1.63711 1.83765,-3.08496 1.91082,-3.21744 0.17623,-0.31913 -7.36022,0.004 -7.68574,0.32949 -0.38837,0.38837 -0.28775,2.5508 0.15888,3.41449 0.62267,1.20411 2.18416,2.45003 3.0706,2.45003 0.69631,0 0.93288,-0.27664 2.54544,-2.97657 z m 228.09027,4.18552 c -0.13309,-0.34675 3.86638,-7.38144 4.72681,-8.31403 0.23836,-0.25837 1.67015,-0.42041 5.13691,-0.58137 4.66772,-0.21671 5.57075,-0.16957 5.57075,0.29087 0,0.12141 -1.16824,2.1625 -2.59607,4.53576 l -2.59606,4.31502 -5.0464,0.0718 c -4.24664,0.0604 -5.07008,0.01 -5.19594,-0.31801 z m 5.64488,-1.10197 c 0,-0.0867 -0.23516,-0.48784 -0.52257,-0.89148 -0.28742,-0.40364 -0.64167,-1.0471 -0.78719,-1.42991 -0.14555,-0.38281 -0.35687,-0.69589 -0.46961,-0.69574 -0.16463,2.1e-4 -1.50596,2.1214 -1.88069,2.97405 -0.0485,0.11037 0.75515,0.20068 1.78594,0.20068 1.03076,0 1.87412,-0.0709 1.87412,-0.1576 z m 5.436,-2.68667 c 0.84283,-1.41883 1.71736,-2.86701 1.94339,-3.21817 l 0.41095,-0.63848 -3.80299,0.16265 c -2.19114,0.0937 -3.92615,0.28597 -4.0936,0.45363 -0.50385,0.50446 -0.30713,2.7387 0.33218,3.77315 0.69887,1.13077 2.02118,2.03628 2.98262,2.04245 0.59952,0.004 0.90551,-0.34991 2.22745,-2.57523 z m -183.57356,3.07327 c -0.85725,-0.47974 -0.38204,-1.8165 0.64575,-1.8165 0.52065,0 1.00796,0.74538 0.82362,1.2598 -0.19557,0.54578 -0.96678,0.83797 -1.46937,0.5567 z m 94.04814,-10.46553 c -0.19503,-0.37029 0.0473,-1.00881 1.06722,-2.8115 0.72575,-1.28282 1.27773,-2.36662 1.22661,-2.40845 -0.0511,-0.0418 -1.13313,-0.63811 -2.40448,-1.32509 -1.27132,-0.68698 -2.38676,-1.37078 -2.4787,-1.51955 -0.0919,-0.14877 0.0119,-0.4495 0.23061,-0.66829 0.35402,-0.354 0.66704,-0.24926 2.84345,0.95143 1.34512,0.74208 2.48682,1.34923 2.53709,1.34923 0.0503,0 0.58169,-0.89328 1.18092,-1.98507 1.34728,-2.454826 1.92246,-3.182476 2.32092,-2.936196 0.52136,0.3222 0.35267,0.920416 -0.91572,3.247276 -0.693,1.27133 -1.12305,2.34262 -0.99219,2.47164 0.12706,0.12525 1.18348,0.75266 2.34765,1.39424 1.49463,0.82372 2.14151,1.33396 2.20123,1.73628 0.12808,0.86314 -0.51488,0.72369 -3.16759,-0.68703 -1.99012,-1.05836 -2.40181,-1.19411 -2.60774,-0.85989 -0.13446,0.21828 -0.75454,1.28065 -1.37789,2.36082 -1.21709,2.10893 -1.61481,2.44313 -2.01139,1.69015 z M 53.995259,110.55415 c 0,-0.25002 0.54682,-1.45774 1.21515,-2.68381 0.66834,-1.22607 1.17435,-2.2659 1.12448,-2.31073 -0.0499,-0.0448 -1.13194,-0.64186 -2.4046,-1.32672 -1.27267,-0.68486 -2.38808,-1.36518 -2.47871,-1.51181 -0.0906,-0.14662 0.014,-0.44541 0.2326,-0.66396 0.35342,-0.35342 0.67572,-0.2473 2.91495,0.95984 l 2.51759,1.35719 0.51727,-0.8683 c 0.28451,-0.47756 0.89916,-1.55039 1.36591,-2.38406 0.99424,-1.775816 1.25866,-1.991616 1.78972,-1.460556 0.34839,0.348376 0.2357,0.673646 -0.98128,2.832486 -0.75618,1.34141 -1.27214,2.53671 -1.14658,2.65623 0.12556,0.11953 1.06173,0.66437 2.08038,1.21077 2.26218,1.21343 2.7848,1.64013 2.59968,2.12253 -0.22849,0.59544 -0.79299,0.4471 -3.11496,-0.81861 -1.20133,-0.65484 -2.29121,-1.19026 -2.42197,-1.18981 -0.13077,5.3e-4 -0.78574,0.98271 -1.4555,2.18281 -0.85797,1.53734 -1.38561,2.20698 -1.78594,2.26655 -0.39353,0.0586 -0.56819,-0.0552 -0.56819,-0.37004 z m 120.726681,-3.07591 c -0.71777,-0.90223 -4.62532,-9.486236 -4.48487,-9.852246 0.42015,-1.09488 1.04509,-0.29209 3.07745,3.953226 1.14948,2.4011 2.20657,4.36563 2.3491,4.36563 0.14253,0 2.13114,-0.83992 4.41913,-1.86649 4.0104,-1.79937 4.88126,-2.01648 4.88126,-1.21692 0,0.54531 -0.25413,0.68826 -4.89479,2.7533 -5.34332,2.37772 -5.02614,2.26718 -5.34728,1.8635 z m 239.14682,-0.47261 c -1.17705,-1.93552 -4.32929,-9.000406 -4.18435,-9.378106 0.38629,-1.00665 1.00189,-0.20602 3.03855,3.951696 1.17618,2.4011 2.25639,4.36563 2.40051,4.36563 0.14412,0 1.81343,-0.70531 3.70959,-1.56735 4.63757,-2.10835 4.58068,-2.09322 4.47429,-1.1895 -0.0788,0.66967 -0.4486,0.89373 -4.40655,2.66997 -2.37628,1.06643 -4.37232,1.93896 -4.43566,1.93896 -0.0633,0 -0.33169,-0.35608 -0.59638,-0.7913 z m -197.202,-4.73311 c -1.99052,-0.23927 -3.69711,-0.51301 -3.79242,-0.60831 -0.0953,-0.0953 -0.87721,-2.114196 -1.73758,-4.486416 -1.27853,-3.52522 -1.50184,-4.37557 -1.22245,-4.65496 0.27939,-0.27939 1.11292,-0.21221 4.56295,0.36775 2.32162,0.39027 4.35683,0.81191 4.52269,0.93699 0.38593,0.29104 3.79948,7.937316 3.79948,8.510756 0,0.54558 -1.14873,0.53326 -6.13267,-0.0658 z m 3.59788,-2.611516 c -0.37182,-0.83675 -0.92492,-2.11667 -1.22913,-2.84427 -0.3042,-0.72761 -0.6831,-1.45732 -0.84199,-1.62158 -0.26668,-0.2757 -6.49971,-1.51621 -6.68538,-1.33054 -0.077,0.077 2.20555,6.530946 2.35799,6.667386 0.12419,0.11117 4.53009,0.5755 5.82111,0.61348 l 1.25344,0.0369 z m 100.61417,-4.38783 c -3.72243,-2.3525 -6.82874,-4.42124 -6.90293,-4.59719 -0.20423,-0.48444 4.38272,-7.20145 4.92496,-7.21193 0.34377,-0.007 0.62539,0.55529 1.15583,2.30632 0.38573,1.27331 0.74424,2.38899 0.79671,2.4793 0.0524,0.0903 1.10945,-0.0828 2.34889,-0.38463 1.5607,-0.38009 2.33818,-0.46418 2.52881,-0.27354 0.1514,0.1514 0.49374,1.19224 0.76076,2.31298 0.26701,1.12073 0.53824,2.09046 0.60272,2.15494 0.0645,0.0645 1.23092,-0.0629 2.59209,-0.28303 2.48113,-0.40129 3.06004,-0.30725 2.87354,0.46681 -0.14325,0.59448 -4.2907,7.04434 -4.61881,7.18289 -0.162,0.0684 -3.34015,-1.80041 -7.06257,-4.15292 z m 8.12556,0.17841 c 0.81632,-1.26016 1.4536,-2.31996 1.41619,-2.35511 -0.0374,-0.0352 -0.9325,0.0853 -1.98914,0.26772 -1.40454,0.24246 -2.01928,0.25322 -2.28616,0.04 -0.20079,-0.1604 -0.56478,-1.21437 -0.80891,-2.34216 -0.24781,-1.14488 -0.58195,-2.05202 -0.75652,-2.05391 -0.17198,-0.002 -1.16131,0.19506 -2.19853,0.43762 -1.0372,0.24255 -2.06023,0.37407 -2.27341,0.29227 -0.21317,-0.0818 -0.59806,-0.90381 -0.85534,-1.82668 -0.25726,-0.92287 -0.52703,-1.77671 -0.59947,-1.89742 -0.0724,-0.12072 -0.78288,0.75313 -1.57877,1.94187 -0.79587,1.18875 -1.37046,2.24001 -1.27688,2.33615 0.25988,0.267 11.35589,7.40229 11.55145,7.42817 0.0942,0.0125 0.8392,-1.00837 1.65549,-2.26853 z M 81.249449,95.135974 c -3.56411,-2.28575 -6.51778,-4.35106 -6.56371,-4.58959 -0.0459,-0.23852 0.90562,-1.93191 2.11456,-3.76308 2.70856,-4.10262 2.95942,-4.17308 3.84157,-1.07908 0.33193,1.16417 0.65593,2.25557 0.72001,2.42533 0.085,0.22514 0.64012,0.17267 2.05151,-0.1939 2.57097,-0.66774 3.08261,-0.65458 3.25269,0.0837 0.0754,0.32742 0.30808,1.35156 0.51702,2.27587 0.20893,0.9243 0.42508,1.72576 0.48033,1.78101 0.0553,0.0553 1.20244,-0.0778 2.54932,-0.29562 1.34688,-0.21784 2.55956,-0.32766 2.69486,-0.24404 0.50577,0.31259 0.19061,1.02275 -1.93682,4.36438 -1.64008,2.5761 -2.31439,3.42392 -2.71198,3.40977 -0.29105,-0.0104 -3.44526,-1.88899 -7.00936,-4.17473 z m 8.34439,0.32742 c 0.80875,-1.25366 1.43453,-2.31346 1.39062,-2.35511 -0.0439,-0.0417 -0.94433,0.0735 -2.00095,0.25591 -1.40452,0.24245 -2.01915,0.25321 -2.28566,0.04 -0.20049,-0.1604 -0.51826,-1.09317 -0.70615,-2.07282 -0.1879,-0.97966 -0.42989,-1.92401 -0.53777,-2.09857 -0.1497,-0.24221 -0.6934,-0.2038 -2.29586,0.16219 -1.15484,0.26376 -2.26447,0.42465 -2.46584,0.35752 -0.20137,-0.0671 -0.61567,-1.00159 -0.92067,-2.07659 l -0.55455,-1.95456 -1.49401,2.23152 c -0.82171,1.22733 -1.40668,2.31394 -1.29994,2.41468 0.21511,0.20302 11.52916,7.3752 11.63431,7.3752 0.0363,0 0.72773,-1.02572 1.53647,-2.27938 z m 24.474431,2.77634 c -0.92445,-1.50217 -1.86467,-4.86859 -1.86467,-6.67638 0,-2.98355 1.78898,-5.46225 3.94233,-5.46225 1.69865,0 3.37807,1.14696 3.97099,2.71198 0.24756,0.65344 0.40443,0.7277 1.53898,0.72859 2.24348,0.002 4.03839,1.68207 4.04046,3.78247 0.002,1.91199 -1.46102,3.64486 -4.09203,4.84718 -1.29532,0.59193 -2.06578,0.74341 -4.28272,0.84201 l -2.70326,0.12023 z m 6.70587,-1.18604 c 2.41521,-0.82972 4.15389,-3.33838 3.35208,-4.83657 -0.48837,-0.91253 -1.73073,-1.38977 -3.38704,-1.3011 -1.46735,0.0786 -1.49455,0.0669 -1.66045,-0.71388 -0.26101,-1.22837 -0.73476,-1.94236 -1.57817,-2.37851 -1.50234,-0.77689 -2.64103,-0.26671 -3.4677,1.55367 -0.84543,1.86169 -0.51263,4.69586 0.87018,7.41061 l 0.5244,1.02952 2.0261,-0.15951 c 1.11435,-0.0877 2.60862,-0.35964 3.3206,-0.60423 z m 232.72351,1.1521 c -0.7075,-1.15364 -1.5625,-3.46541 -1.85804,-5.02366 -0.66178,-3.48955 1.31427,-7.08103 3.89599,-7.08103 1.7562,0 3.42813,1.12534 4.02923,2.71198 0.24757,0.65344 0.40445,0.7277 1.53898,0.72859 2.44396,0.002 4.15888,1.75701 3.96084,4.05362 -0.26792,3.10674 -4.13372,5.47039 -8.94697,5.47039 -2.07642,0 -2.09679,-0.007 -2.62003,-0.85989 z m 6.54452,-1.09452 c 1.58567,-0.56393 2.59776,-1.38986 3.28078,-2.67738 0.53139,-1.00169 0.55681,-1.20545 0.24437,-1.95971 -0.47985,-1.15846 -1.55506,-1.65602 -3.36712,-1.55816 l -1.47867,0.0799 -0.29388,-1.00914 c -0.56044,-1.9247 -2.25888,-3.00985 -3.55708,-2.27268 -1.36708,0.77626 -1.76385,1.68396 -1.76385,4.03516 0,1.79021 0.13711,2.51035 0.78389,4.11697 l 0.7839,1.94722 2.12651,-0.15287 c 1.16959,-0.0841 2.62811,-0.33126 3.24115,-0.54928 z M 3.6582828,95.031264 c -3.434246,-1.5297 -3.638021,-1.66236 -3.638021,-2.36845 0,-0.86124 -0.605056,-1.03088 4.797616,1.34513 1.692804,0.74447 3.268503,1.35358 3.501555,1.35358 0.233052,0 0.786932,-0.32742 1.2308438,-0.72761 0.8897644,-0.80211 1.3336254,-2.4523 0.8245874,-3.06565 -0.163484,-0.19699 -2.5568702,-1.35886 -5.3186372,-2.58193 -4.752015,-2.10448 -5.021784,-2.26281 -5.028679,-2.95138 -0.004,-0.40018 0.04857,-0.7276 0.116844,-0.7276 0.125882,0 5.692423,2.45877 8.91122,3.93613 2.8033152,1.28667 3.4351652,2.60127 2.3735722,4.93836 -0.687658,1.51387 -1.9498304,2.50662 -3.1609932,2.48624 -0.589194,-0.01 -2.404406,-0.65443 -4.609908,-1.63682 z m 240.7046872,0.57813 c -12.79018,-5.75754 -11.94936,-5.20853 -11.71484,-7.64912 0.16213,-1.68738 1.25787,-3.1547 2.75005,-3.68265 1.02742,-0.36351 1.09038,-0.34678 4.87054,1.2935 5.44438,2.36242 9.81102,4.44226 10.34927,4.92936 1.10713,1.00195 0.78569,3.46572 -0.65763,5.04066 -1.30099,1.41962 -2.56122,1.43499 -5.59739,0.0683 z m 4.30827,-0.66081 c 1.17412,-0.82239 1.78484,-2.89067 1.03685,-3.51145 -0.18888,-0.15676 -2.85942,-1.40687 -5.93453,-2.77802 l -5.59111,-2.49301 -0.31328,1.30589 c -0.1723,0.71824 -0.6122,1.66115 -0.97755,2.09534 -0.36536,0.4342 -0.6197,0.834 -0.56521,0.88844 0.31034,0.3101 10.77298,4.86382 11.21884,4.88285 0.29504,0.0126 0.80174,-0.16292 1.12599,-0.39004 z m -13.45893,-5.79312 c 1.16253,-0.60116 2.13329,-3.22891 1.36766,-3.7021 -0.46524,-0.28753 -1.61352,0.37662 -2.13776,1.23646 -0.66319,1.08773 -0.7103,2.85086 -0.0762,2.85086 0.0557,0 0.43656,-0.17335 0.84627,-0.38522 z m -209.794241,1.96925 c -0.30536,-0.19037 -0.32833,-0.35254 -0.10151,-0.7166 0.22605,-0.36281 0.99445,-0.56142 3.35595,-0.86743 1.68453,-0.21828 3.11792,-0.4564 3.18532,-0.52916 0.0674,-0.0728 -0.0893,-1.37937 -0.34833,-2.90358 -0.25898,-1.5242 -0.41679,-2.91219 -0.3507,-3.08442 0.11136,-0.2902 2.56505,-0.95419 4.91441,-1.32987 0.55025,-0.088 1.04681,-0.23499 1.10347,-0.32667 0.0567,-0.0917 -0.0567,-1.53456 -0.25196,-3.20639 -0.27281,-2.33601 -0.28271,-3.11266 -0.0427,-3.35488 0.17173,-0.17335 1.38381,-0.44864 2.69349,-0.61176 1.30969,-0.16313 2.51083,-0.3376 2.66921,-0.38771 0.20529,-0.065 0.18992,-0.87682 -0.0535,-2.82782 -0.18781,-1.50518 -0.34715,-3.00832 -0.3541,-3.34031 -0.0138,-0.66048 0.6626,-1.07595 1.07702,-0.66152 0.29386,0.29385 1.18456,7.67807 0.95396,7.90867 -0.0819,0.0819 -1.35869,0.30698 -2.83737,0.50021 -1.47867,0.19324 -2.74953,0.41238 -2.82413,0.48698 -0.0746,0.0746 0.009,1.44862 0.18657,3.05339 0.17721,1.60476 0.25772,3.0858 0.1789,3.2912 -0.0894,0.23285 -1.24733,0.60217 -3.07565,0.98093 -1.84593,0.38241 -2.93235,0.73004 -2.93235,0.93828 0,0.18194 0.17857,1.26401 0.39683,2.4046 0.21825,1.14058 0.39685,2.44749 0.39687,2.90424 5e-5,0.94289 0.0635,0.92091 -4.10099,1.42017 -1.30969,0.15702 -2.62037,0.33499 -2.91262,0.39549 -0.29225,0.0605 -0.70897,-8e-4 -0.92604,-0.13604 z m 239.437651,-0.006 c -0.29613,-0.18466 -0.3171,-0.34777 -0.0913,-0.71026 0.22725,-0.36483 1.00002,-0.56074 3.43958,-0.872 3.61577,-0.46133 3.28231,0.0631 2.58699,-4.06848 -0.23233,-1.38049 -0.2984,-2.45091 -0.15984,-2.58948 0.12994,-0.12992 1.53557,-0.50903 3.12362,-0.84245 2.74889,-0.57714 2.8846,-0.63695 2.82898,-1.24697 -0.0322,-0.35241 -0.19063,-1.81574 -0.35224,-3.25184 -0.16407,-1.45795 -0.1933,-2.71161 -0.0662,-2.8387 0.1252,-0.12519 1.45994,-0.36774 2.96611,-0.53901 l 2.73846,-0.3114 -0.16288,-1.74469 c -0.0896,-0.95958 -0.24069,-2.48617 -0.33581,-3.39242 -0.14784,-1.40878 -0.10742,-1.67286 0.2788,-1.82107 0.24844,-0.0953 0.55239,-0.0682 0.67545,0.0602 0.38812,0.40522 1.13774,7.54134 0.82502,7.85405 -0.15253,0.15252 -1.41986,0.42371 -2.81633,0.60263 -1.39644,0.17893 -2.60884,0.39517 -2.69422,0.48055 -0.0854,0.0854 -0.007,1.53928 0.17341,3.23091 0.18073,1.69163 0.22928,3.1678 0.10792,3.28039 -0.12139,0.11258 -1.47087,0.47049 -2.99884,0.79536 -1.52797,0.32487 -2.82289,0.63084 -2.87761,0.67994 -0.0547,0.0491 0.11573,1.46155 0.37878,3.13879 0.26302,1.67724 0.41949,3.10827 0.34769,3.18008 -0.0718,0.0718 -1.49241,0.31173 -3.15691,0.53316 -1.66449,0.22143 -3.32959,0.4543 -3.70025,0.51749 -0.37065,0.0632 -0.8469,0.007 -1.05833,-0.12481 z m -114.15525,-2.79723 c -2.18281,-0.65797 -4.10611,-1.33743 -4.274,-1.50991 -0.23143,-0.23776 -0.002,-1.34281 0.94982,-4.56979 1.38814,-4.70744 1.45731,-4.87193 2.04889,-4.87193 0.85787,0 8.87627,2.49525 8.99261,2.79841 0.0669,0.17438 -0.46144,2.32475 -1.17413,4.7786 -1.19759,4.12344 -1.34423,4.46568 -1.93511,4.51623 -0.35163,0.0301 -2.42527,-0.48365 -4.60808,-1.14161 z m 5.25139,-3.84198 c 0.54247,-1.91053 0.94966,-3.51034 0.90485,-3.55514 -0.22709,-0.2271 -6.83703,-2.03587 -6.96655,-1.90635 -0.21462,0.21462 -1.96176,6.06938 -1.96507,6.58507 -0.002,0.31751 0.79992,0.6699 3.10611,1.36487 1.70987,0.51527 3.29459,0.94774 3.52161,0.96104 0.30816,0.0181 0.66267,-0.85602 1.39905,-3.44949 z m 234.20373,3.85148 c -2.17884,-0.64682 -4.10943,-1.32393 -4.29019,-1.50469 -0.26181,-0.26181 -0.0616,-1.24337 0.98427,-4.8264 0.72213,-2.47376 1.31326,-4.52751 1.31363,-4.56389 0.004,-0.36987 9.07352,2.06105 9.61837,2.57801 0.21112,0.20031 -0.29204,2.20181 -1.84618,7.34386 -0.56904,1.88266 -0.7394,2.1805 -1.23904,2.16598 -0.31861,-0.009 -2.36199,-0.54605 -4.54086,-1.19287 z m 5.04489,-3.32497 c 0.45513,-1.54513 0.90125,-3.10308 0.99137,-3.46212 0.15925,-0.63451 0.0674,-0.68112 -3.27869,-1.66443 -2.06415,-0.60657 -3.53344,-0.91426 -3.66959,-0.76843 -0.20693,0.22167 -2.17014,6.79781 -2.05512,6.88407 0.25598,0.19196 6.49464,1.9117 6.79201,1.87227 0.25667,-0.034 0.67889,-1.02433 1.22002,-2.86136 z m -209.04584,1.71452 c -2.02091,-1.06351 -3.56449,-3.48137 -3.56929,-5.59091 -0.003,-1.41132 0.7667,-2.95963 1.75817,-3.5357 0.84337,-0.49003 13.83593,-2.50415 14.50281,-2.24825 0.22285,0.0855 0.40518,0.27569 0.40518,0.4226 0,0.32777 -5.8351,7.15354 -8.21117,9.60523 -1.635,1.68702 -1.79623,1.78535 -2.9114,1.77534 -0.6493,-0.006 -1.53774,-0.19857 -1.9743,-0.42831 z m 2.63398,-1.04837 c 0.53732,-0.20619 1.20331,-1.46607 1.19989,-2.2699 -0.004,-1.04163 -1.22051,-3.28351 -2.17673,-4.01285 -1.23258,-0.94014 -2.66646,-0.95474 -3.27021,-0.0333 -0.63006,0.9616 -0.40968,3.45971 0.40631,4.60566 1.05693,1.48432 2.61811,2.17956 3.84074,1.71039 z m 5.41453,-5.90869 c 1.31075,-1.52116 2.35347,-2.79546 2.31716,-2.83177 -0.0363,-0.0363 -1.80505,0.19625 -3.93055,0.5168 l -3.86454,0.58281 0.90563,1.04565 c 0.4981,0.5751 1.10871,1.61744 1.35693,2.31631 0.24821,0.69886 0.537,1.24035 0.64174,1.2033 0.10475,-0.037 1.26288,-1.31193 2.57363,-2.8331 z m 228.3921,3.8755 c -0.7602,-1.544 -0.71046,-3.8182 0.11089,-5.06972 l 0.51517,-0.78498 0.0782,1.77717 c 0.043,0.97744 0.043,2.58083 0,3.5631 l -0.0782,1.78593 z M 63.241819,78.519024 c -1.27007,-0.53131 -3.07633,-2.35456 -3.8907,-3.9273 -1.77687,-3.43155 -0.19465,-7.81824 3.50769,-9.72504 2.13712,-1.10067 6.36739,-0.87111 7.038,0.38193 0.49542,0.92572 -0.0814,1.15687 -1.63481,0.65516 -1.67134,-0.53978 -2.17283,-0.54644 -3.83382,-0.0509 -2.70668,0.80752 -4.35186,2.93689 -4.34169,5.61946 0.01,2.54293 1.17872,4.42932 3.56607,5.75411 1.76775,0.98096 1.42474,2.06041 -0.41074,1.29257 z m 238.800321,-0.44524 c -1.56094,-0.73261 -3.1134,-2.35748 -3.56775,-3.73413 -0.49673,-1.50512 -0.2496,-4.54358 0.48517,-5.96563 1.41071,-2.73013 3.73872,-4.22629 6.58297,-4.23075 2.14352,-0.003 3.83455,0.6419 3.72342,1.42077 -0.089,0.62375 -0.33686,0.63864 -2.49412,0.14982 -2.99318,-0.67823 -6.47245,1.4285 -7.21241,4.36719 -0.68357,2.71466 0.6758,5.63001 3.27647,7.02686 2.25412,1.21072 1.55096,2.06634 -0.79375,0.96587 z m -285.829378,-1.5506 c -0.609349,-0.60935 -0.184414,-1.79916 0.64256,-1.79916 0.371362,0 1.156607,0.71852 1.156607,1.05833 0,0.33981 -0.785245,1.05833 -1.156607,1.05833 -0.178783,0 -0.467935,-0.14287 -0.64256,-0.3175 z m 239.447918,0 c -0.75239,-0.75239 -0.0164,-1.99119 0.99272,-1.6709 0.37768,0.11987 0.54187,0.39851 0.54187,0.91959 0,0.96766 -0.88497,1.40093 -1.53459,0.75131 z m -146.91163,-7.07954 c -2.9299,-2.30304 -3.60924,-3.19935 -2.57574,-3.39838 0.25748,-0.0496 1.52304,0.77439 2.94066,1.9146 1.36875,1.10091 2.58045,2.00166 2.69266,2.00166 0.11221,0 1.1876,-0.89297 2.38977,-1.98438 1.20216,-1.09141 2.33467,-1.98437 2.51668,-1.98437 0.18201,0 1.39321,0.90852 2.69157,2.01894 1.31605,1.12555 2.45763,1.91584 2.57982,1.78594 0.12055,-0.12816 1.13185,-1.30457 2.24732,-2.61426 1.11548,-1.30969 2.15647,-2.38125 2.31332,-2.38125 0.15686,0 0.40598,0.1915 0.55362,0.42555 0.21485,0.34061 -0.22192,1.00066 -2.18858,3.30729 -1.35135,1.58496 -2.61143,2.97214 -2.80017,3.08264 -0.2232,0.13066 -1.22674,-0.54784 -2.87058,-1.94079 l -2.5274,-2.14167 -2.26317,2.07307 c -1.24474,1.14019 -2.35516,2.10509 -2.4676,2.14421 -0.11245,0.0391 -1.56693,-0.99984 -3.23218,-2.3088 z m 239.34604,-0.0441 c -2.01554,-1.57755 -3.0558,-2.5621 -3.00204,-2.84124 0.16677,-0.86603 0.95917,-0.53704 3.49845,1.4525 1.82523,1.43007 2.70148,1.96493 2.94127,1.79537 0.18786,-0.13283 1.22762,-1.04518 2.31058,-2.02745 1.08297,-0.98226 2.11434,-1.78593 2.29193,-1.78593 0.17759,0 1.39541,0.91729 2.70629,2.03842 2.36312,2.02106 2.38718,2.03368 2.8222,1.48191 1.34316,-1.70356 4.12044,-4.84325 4.28419,-4.84325 0.10496,0 0.33904,0.17856 0.52014,0.39679 0.26398,0.31807 0.25728,0.49816 -0.0337,0.90773 -0.86987,1.22418 -4.62698,5.5539 -4.93194,5.68361 -0.18457,0.0785 -1.46582,-0.81305 -2.84723,-1.9812 l -2.51169,-2.12391 -2.37604,2.13037 c -1.3068,1.1717 -2.42374,2.13036 -2.48206,2.13036 -0.0583,0 -1.49397,-1.08634 -3.19032,-2.41408 z m -131.85402,0.51239 c -0.21021,-0.21021 -0.32081,-1.26907 -0.32081,-3.07136 v -2.75056 l -2.71197,0.0558 c -3.47055,0.0715 -3.37344,0.0867 -3.37344,-0.52928 0,-0.65557 0.51432,-0.78012 3.57187,-0.86498 l 2.38125,-0.0661 -0.0931,-2.65726 c -0.0791,-2.25783 -0.025,-2.71369 0.35936,-3.03272 0.81442,-0.6759 1.1889,0.29888 1.1889,3.09471 v 2.46297 h 2.74573 c 2.1514,0 2.81904,0.0883 3.08441,0.40809 0.60082,0.72395 -0.13137,0.99533 -3.03373,1.12441 l -2.77972,0.12363 -0.0745,2.92069 c -0.0734,2.87662 -0.27008,3.45614 -0.94431,2.78191 z M 9.7281696,62.192804 c -0.14433,-0.37612 2.3546194,-9.40737 2.7027564,-9.76782 0.266637,-0.27606 8.726972,-2.56944 9.483607,-2.57076 0.327422,-5.3e-4 0.595316,0.11947 0.595316,0.26676 0,0.29137 -2.638719,9.33828 -2.758697,9.45826 -0.12517,0.12517 -9.340812,2.97394 -9.620561,2.97394 -0.1452724,0 -0.3263614,-0.16217 -0.4024214,-0.36038 z m 5.5331924,-2.5972 3.544317,-1.1055 v -0.81686 c 0,-1.10941 -0.782584,-2.48623 -1.950434,-3.43145 -0.748591,-0.60588 -1.245845,-0.78774 -2.188502,-0.80038 l -1.219814,-0.0163 -0.879024,3.04271 c -1.149183,3.97785 -1.210484,4.23333 -1.01575,4.23333 0.09069,0 1.759833,-0.49747 3.709207,-1.10549 z m 4.970233,-6.34356 c 0.512111,-1.79761 0.51353,-1.82272 0.09544,-1.68888 -0.181901,0.0582 -1.000878,0.29174 -1.819949,0.51891 l -1.489219,0.41304 1.224636,1.26235 c 0.67355,0.69429 1.300751,1.20118 1.393781,1.12643 0.09303,-0.0748 0.36092,-0.80909 0.595313,-1.63185 z m 228.763495,8.97041 c 0.004,-0.62571 2.58092,-9.50168 2.83185,-9.75261 0.30939,-0.30939 8.71176,-2.61419 9.53551,-2.61562 0.32742,-5.3e-4 0.59332,0.0883 0.59089,0.1974 -0.0122,0.54834 -2.66262,9.18902 -2.88757,9.41398 -0.30693,0.30693 -8.93099,3.0723 -9.60957,3.08139 -0.25466,0.003 -0.46216,-0.14264 -0.46111,-0.32454 z m 5.81893,-2.67033 c 3.06648,-1.01989 3.31326,-1.15168 3.38931,-1.81002 0.0849,-0.7348 -0.4871,-2.10016 -1.23841,-2.95614 -0.69348,-0.79009 -2.38496,-1.53055 -3.29486,-1.44236 -0.83529,0.081 -0.84633,0.10165 -1.80836,3.38875 -1.10263,3.76749 -1.1392,3.97784 -0.68571,3.94425 0.18191,-0.0135 1.81901,-0.51949 3.63803,-1.12448 z m 4.84837,-6.37523 c 0.23762,-0.86409 0.40047,-1.60264 0.36188,-1.64123 -0.0585,-0.0585 -2.10788,0.46515 -3.28986,0.84069 -0.19549,0.0621 0.17956,0.62473 0.92604,1.38915 0.69003,0.70661 1.32555,1.21674 1.41225,1.13361 0.0867,-0.0831 0.35207,-0.85812 0.58969,-1.72222 z m -173.429591,8.60398 c -2.24016,-0.72373 -3.44582,-2.23155 -3.61107,-4.51605 -0.18722,-2.58835 0.80859,-4.51354 2.88169,-5.57116 4.41152,-2.25058 9.50594,3.20205 7.04735,7.54287 -1.10365,1.94856 -4.2456,3.21387 -6.31797,2.54434 z m 3.50214,-1.88419 c 1.52564,-0.77833 2.15017,-1.90048 2.02207,-3.63321 -0.0808,-1.09312 -0.27004,-1.57243 -0.87462,-2.2154 -1.50163,-1.59697 -3.38757,-1.96213 -4.89326,-0.94745 -2.54442,1.71469 -2.8425,5.02755 -0.61034,6.78337 0.93561,0.73595 2.92706,0.74175 4.35615,0.0127 z m 234.938971,1.41987 c -1.10733,-0.57287 -1.58686,-1.02045 -2.05052,-1.91384 -1.24947,-2.40745 -0.56287,-5.5627 1.58168,-7.26864 1.3484,-1.07264 3.56685,-1.27292 5.15048,-0.465 4.00162,2.04146 4.30771,7.70235 0.51576,9.538 -1.96903,0.95319 -3.50409,0.98552 -5.1974,0.10948 z m 4.62878,-1.53247 c 1.91728,-1.12359 2.5422,-3.46433 1.3806,-5.17109 -0.99611,-1.46358 -1.91321,-1.98168 -3.50777,-1.98168 -1.21415,0 -1.53866,0.11431 -2.25316,0.79375 -1.34102,1.27515 -1.68842,2.18077 -1.61055,4.19831 0.0193,0.50395 0.37423,1.10367 1.05651,1.78594 0.93379,0.93381 1.15419,1.02721 2.42414,1.02721 1.00756,0 1.70727,-0.18187 2.51023,-0.65244 z m -149.76263,-0.1587 c -2.80813,-2.0355 -3.49905,-2.90472 -2.46689,-3.10349 0.24394,-0.047 1.4941,0.67229 2.77813,1.59837 1.28402,0.92608 2.47187,1.76645 2.63965,1.86748 0.19174,0.11546 0.90379,-0.74989 1.91692,-2.3296 0.9211,-1.43622 1.79123,-2.51329 2.03042,-2.51329 0.2302,0 1.54372,0.67144 2.91892,1.4921 1.3752,0.82066 2.53659,1.44574 2.58086,1.38907 0.0443,-0.0567 0.93376,-1.26391 1.97664,-2.68273 1.04288,-1.41883 2.00087,-2.57969 2.12887,-2.57969 0.128,0 0.38097,0.17862 0.56216,0.39694 0.33778,0.407 0.33159,0.41709 -3.28404,5.34743 -0.44938,0.61279 -0.99047,1.1188 -1.20242,1.12448 -0.21194,0.006 -1.4827,-0.64453 -2.8239,-1.44489 -1.3412,-0.80037 -2.49561,-1.45521 -2.56537,-1.45521 -0.0697,0 -0.85224,1.13109 -1.73886,2.51354 -1.05259,1.64125 -1.77316,2.50931 -2.07635,2.50134 -0.25538,-0.007 -1.77402,-0.96155 -3.37474,-2.12185 z m 239.44792,0.031 c -1.87616,-1.34409 -2.91042,-2.25631 -2.91042,-2.56704 0,-0.92137 0.8242,-0.62715 3.43196,1.22512 l 2.62287,1.86296 0.54446,-0.86263 0.54446,-0.86264 0.0809,1.11437 c 0.0937,1.29096 -0.30041,2.19682 -0.95007,2.1839 -0.24953,-0.005 -1.76339,-0.94729 -3.36412,-2.09404 z m -284.63236,-2.16585 c -0.85725,-0.47974 -0.38204,-1.81651 0.64575,-1.81651 0.52065,0 1.00796,0.74538 0.82362,1.25981 -0.19557,0.54578 -0.96678,0.83796 -1.46937,0.5567 z m 239.39638,-0.0583 c -0.53766,-0.39316 -0.45966,-1.18667 0.15471,-1.57351 0.63378,-0.39908 1.29272,-0.0302 1.29272,0.72374 0,0.84789 -0.80425,1.32006 -1.44743,0.84977 z m -222.19137,-3.14727 c -0.0674,-0.1819 0.35172,-1.61539 0.93131,-3.18552 0.5796,-1.57014 0.99182,-2.91678 0.91607,-2.99253 -0.0758,-0.0758 -0.95407,-0.25098 -1.95181,-0.38937 -2.24729,-0.31172 -2.47552,-0.3941 -2.47552,-0.89358 0,-0.22001 1.86063,-2.4264 4.13474,-4.9031 5.27473,-5.74463 5.88063,-5.87817 4.43912,-0.97842 -0.37767,1.28372 -0.64311,2.37761 -0.58985,2.43087 0.0532,0.0532 1.04684,0.25309 2.20797,0.44408 1.73129,0.28478 2.11115,0.43326 2.11115,0.82526 0,0.62689 -8.58202,9.97304 -9.15766,9.97304 -0.24366,0 -0.49815,-0.14883 -0.56552,-0.33073 z m 5.21571,-6.27628 c 1.15891,-1.28233 2.1477,-2.45329 2.19732,-2.60214 0.0516,-0.15478 -0.66116,-0.35109 -1.66509,-0.4586 -1.16173,-0.12441 -1.80549,-0.31878 -1.90373,-0.57479 -0.0816,-0.21274 0.0324,-1.03638 0.25335,-1.83031 0.22097,-0.79393 0.29995,-1.40865 0.17551,-1.36606 -0.12445,0.0426 -1.25486,1.20628 -2.51203,2.58597 l -2.28575,2.50851 1.99961,0.27618 c 1.09978,0.1519 2.0795,0.35607 2.17714,0.45371 0.15426,0.15426 -0.19254,1.40624 -0.80835,2.91819 -0.37674,0.92499 0.30715,0.37411 2.37202,-1.91066 z m 234.17197,6.35239 c -0.0968,-0.15668 0.32086,-1.59986 0.92823,-3.20707 0.60736,-1.6072 1.04249,-2.98399 0.96695,-3.05954 -0.0755,-0.0755 -0.98838,-0.24421 -2.02851,-0.37481 -2.12296,-0.26657 -2.38638,-0.37136 -2.38638,-0.94932 0,-0.6324 8.16195,-9.35256 8.75387,-9.35256 0.6695,0 0.64582,0.4139 -0.1928,3.36896 -0.38462,1.35537 -0.6354,2.52823 -0.55729,2.60636 0.0781,0.0781 0.95837,0.25527 1.95612,0.39367 2.20128,0.30533 2.47623,0.3979 2.47303,0.83261 -0.004,0.5091 -8.69733,9.85141 -9.2547,9.94531 -0.26535,0.0447 -0.56169,-0.0469 -0.65852,-0.20361 z m 7.53446,-9.03383 c 0,-0.0925 -0.74295,-0.25225 -1.65103,-0.35499 -2.2357,-0.25294 -2.37125,-0.39907 -1.88587,-2.03344 0.21643,-0.72883 0.35507,-1.4405 0.30805,-1.58151 -0.0751,-0.22525 -4.70865,4.56682 -4.70865,4.86972 0,0.065 0.82407,0.19942 1.83128,0.29866 2.19769,0.21656 2.54942,0.52181 2.03875,1.76937 -0.92758,2.26598 -0.72707,2.23128 1.67577,-0.29 1.31543,-1.38028 2.3917,-2.58529 2.3917,-2.67781 z m -351.509021,5.51814 c -0.0692,-0.1819 0.0282,-2.45757 0.21645,-5.05705 0.23397,-3.23162 0.25544,-4.75073 0.0679,-4.8035 -0.15086,-0.0424 -2.29745,-0.27701 -4.7702,-0.52123 -2.47275,-0.24422 -4.5751,-0.57215 -4.67188,-0.72875 -0.33348,-0.53959 0.0963,-0.99416 0.92787,-0.9813 1.95699,0.0303 9.7457,0.99022 9.98629,1.23081 0.27579,0.27579 -0.35689,10.39135 -0.68293,10.91889 -0.2342,0.37896 -0.92151,0.3419 -1.0735,-0.0579 z m 239.418021,-0.0748 c -0.0856,-0.22307 -0.0222,-2.04276 0.1406,-4.04377 0.16293,-2.00101 0.29623,-4.11421 0.29623,-4.696 v -1.05779 l -4.69636,-0.4697 c -2.58299,-0.25834 -4.80147,-0.57401 -4.92992,-0.70149 -0.42937,-0.42608 0.0642,-1.06124 0.82058,-1.05591 1.68259,0.0119 9.92833,1.0116 10.14698,1.23025 0.23815,0.23816 -0.4164,10.50916 -0.69885,10.96618 -0.23275,0.3766 -0.91019,0.26878 -1.07926,-0.17177 z m -56.44859,-4.35693 c -0.43053,-0.43053 -0.48401,-0.64833 -0.26134,-1.0644 0.31399,-0.58669 1.05126,-0.68568 1.53134,-0.2056 0.48008,0.48008 0.38109,1.21735 -0.2056,1.53134 -0.41607,0.22267 -0.63387,0.16919 -1.0644,-0.26134 z M 64.631509,45.037814 c -0.74162,-0.74162 -0.0202,-1.99238 0.96828,-1.67866 0.66683,0.21164 0.9019,0.83993 0.55605,1.48616 -0.30786,0.57524 -1.04811,0.66872 -1.52433,0.1925 z m 239.458061,0.0101 c -0.76645,-0.76645 0.0643,-2.19235 0.95131,-1.63283 0.65066,0.41043 0.58385,1.78741 -0.0914,1.88419 -0.29273,0.042 -0.67969,-0.0711 -0.85989,-0.25136 z m -185.20524,-1.99939 c -0.64993,-0.23303 -0.30968,-1.00521 1.04929,-2.38127 l 1.38002,-1.39738 -1.38002,-1.39739 c -1.40251,-1.42015 -1.6943,-2.12956 -0.98747,-2.4008 0.24284,-0.0932 0.97962,0.39287 1.93186,1.27449 l 1.5393,1.42512 1.44158,-1.29134 c 1.53463,-1.37469 2.0228,-1.56661 2.28,-0.89637 0.10684,0.27841 -0.31235,0.89652 -1.25603,1.85208 l -1.4164,1.43421 1.38003,1.39738 c 1.4087,1.42642 1.70733,2.19779 0.96163,2.48395 -0.28038,0.10759 -0.91626,-0.33212 -1.92762,-1.33292 l -1.50923,-1.49348 -1.18123,1.21268 c -1.32187,1.35706 -1.82168,1.6846 -2.30571,1.51104 z m 244.42216,-1.25163 -1.42383,-1.44173 -1.43272,1.30944 c -2.51497,2.29854 -3.4559,1.42019 -1.06841,-0.99735 l 1.38004,-1.39738 -1.38004,-1.39739 c -2.37331,-2.40317 -1.52749,-3.24545 0.99245,-0.98827 l 1.4464,1.2956 1.38202,-1.30705 c 1.43428,-1.35649 2.10905,-1.60674 2.38604,-0.88492 0.10962,0.28567 -0.31998,0.90412 -1.32881,1.91297 l -1.49085,1.49083 1.48939,1.50509 c 0.99785,1.00838 1.4364,1.64318 1.32885,1.92349 -0.2729,0.71111 -0.8022,0.47361 -2.28053,-1.02333 z m -111.20856,-1.51367 c -1.39189,-0.29763 -3.07146,-1.18105 -4.16308,-2.18969 -0.7071,-0.65334 -1.32299,-0.92552 -2.605,-1.15122 -1.99217,-0.35072 -3.76671,-1.16252 -5.05641,-2.31319 -0.59845,-0.53393 -1.65527,-1.05081 -2.92193,-1.4291 -3.36502,-1.00496 -6.07089,-2.78176 -5.34372,-3.50892 0.34056,-0.34057 0.70403,-0.18946 3.62393,1.50659 1.88909,1.09729 2.38383,1.17453 2.13374,0.33311 -0.67689,-2.27737 -0.33099,-4.21722 1.01359,-5.68442 0.7497,-0.81806 1.05969,-0.95987 2.29918,-1.0518 1.89366,-0.14045 2.99021,0.51091 3.45137,2.05013 0.62136,2.07392 -0.44355,4.44902 -2.61111,5.82365 l -1.17302,0.74391 1.41188,0.81021 c 1.51407,0.86886 3.08768,1.4754 3.2936,1.26948 0.0696,-0.0696 -0.0142,-0.68528 -0.18621,-1.36827 -0.71727,-2.84853 1.41995,-5.70174 4.27093,-5.70174 0.90312,0 1.26312,0.16519 2.02895,0.93102 0.88766,0.88766 0.92579,1.00166 0.81866,2.4474 -0.1361,1.83662 -1.05084,3.35841 -2.58916,4.30741 -0.57821,0.3567 -1.05449,0.74046 -1.0584,0.85281 -0.0131,0.37454 2.45432,1.77144 3.41303,1.93228 1.60574,0.26939 1.87152,0.39622 1.87152,0.89314 0,0.60436 -0.64324,0.77073 -1.92234,0.49721 z m -3.42234,-5.09077 c 2.09339,-1.09364 3.12516,-3.69835 1.93602,-4.88749 -1.51002,-1.51002 -3.99968,0.20002 -3.99968,2.7472 0,1.02702 0.63769,2.51354 1.07827,2.51354 0.14901,0 0.59244,-0.16797 0.98539,-0.37325 z m -6.50155,-4.59539 c 1.82811,-1.71004 1.38295,-4.55636 -0.7126,-4.55636 -2.18878,0 -3.47206,3.35962 -2.0981,5.49282 0.37213,0.57777 0.41406,0.58347 1.2372,0.16824 0.46861,-0.2364 1.17669,-0.73351 1.5735,-1.1047 z m -231.210495,9.09281 c -0.747914,-0.34824 -1.8194762,-1.04699 -2.3812502,-1.55277 -0.772146,-0.69519 -1.355357,-0.96511 -2.389843,-1.10604 -1.584879,-0.21591 -4.072759,-1.32774 -5.31229401,-2.37405 -0.71088899,-0.60007 -0.85989599,-0.91281 -0.85989599,-1.80476 0,-0.5934 0.07463,-1.00428 0.165837,-0.91307 0.21413299,0.21413 1.641057,-0.50727 2.43899,-1.23307 1.402576,-1.27579 1.7197,-2.81883 0.815553,-3.96827 -0.674555,-0.85756 -1.747637,-0.91618 -2.72324001,-0.14877 l -0.69713999,0.54837 v -0.93594 c 0,-1.09186 0.52296299,-1.48372 1.98012,-1.48372 4.015763,0 4.464796,5.3225 0.661378,7.83949 -1.292889,0.85559 -1.135373,1.15302 1.19496,2.25637 2.342639,1.10918 2.544476,1.05528 2.072847,-0.5536 -0.4874,-1.66268 -0.139685,-3.12212 1.051931,-4.41519 2.6967648,-2.92636 6.7699552,-1.09103 5.9436522,2.67814 -0.314032,1.43246 -1.416822,2.96403 -2.63485,3.65933 -0.5530504,0.3157 -1.0064632,0.63549 -1.0075832,0.71063 -0.0043,0.28971 2.9113402,1.86112 3.7476322,2.0198 1.280267,0.24291 1.808608,0.57314 1.636128,1.02261 -0.232839,0.60677 -2.14476,0.48002 -3.702932,-0.24549 z m -1.3378454,-4.73617 c 1.3053944,-0.79023 2.0323074,-1.91869 2.0344864,-3.15831 0.0045,-2.55719 -3.0906202,-2.78565 -4.1272482,-0.30465 -0.47078,1.12673 -0.466758,2.00573 0.01445,3.15742 0.451065,1.07954 0.731607,1.12079 2.0783118,0.30554 z m 195.3143604,1.4133 c -3.98147,-3.59777 -3.95546,-3.84158 0.46549,-4.36407 l 1.52382,-0.18009 -0.0686,-2.56034 -0.0686,-2.56034 2.4474,-0.24138 2.44739,-0.24138 v -2.73518 c 0,-2.53697 0.0374,-2.73519 0.5168,-2.73519 0.73988,0 6.66959,5.28323 6.57194,5.85544 -0.0425,0.24906 -2.22041,2.92987 -4.83978,5.95736 -5.22606,6.04031 -5.5964,6.44539 -5.88698,6.43929 -0.10914,-0.002 -1.50812,-1.18765 -3.10885,-2.63412 z m 7.77856,-4.50547 4.50375,-5.15937 -1.90782,-1.78058 c -1.0493,-0.97932 -1.99712,-1.78299 -2.10626,-1.78594 -0.10915,-0.003 -0.19844,0.93912 -0.19844,2.09348 0,2.41711 0.18377,2.26187 -3.00134,2.5353 l -2.0753,0.17815 0.14859,0.835 c 0.22671,1.274 0.27406,3.75266 0.0778,4.07029 -0.0961,0.15547 -1.00861,0.36642 -2.02783,0.46878 -1.01922,0.10235 -1.85522,0.26331 -1.85777,0.35768 -0.007,0.2522 3.54464,3.46623 3.75871,3.4016 0.1002,-0.0303 2.20888,-2.37673 4.68595,-5.21439 z m -124.172401,0.93212 c -1.12466,-1.56143 -2.10789,-3.0033 -2.18497,-3.20417 -0.10965,-0.28576 2.99723,-6.43668 3.52685,-6.98235 0.13935,-0.14357 7.29574,-0.77229 7.49883,-0.6588 0.0728,0.0407 1.07851,1.45964 2.234993,3.15328 l 2.102688,3.07935 -1.6897,3.41166 c -1.203001,2.42897 -1.846771,3.44923 -2.234991,3.54209 -0.2999,0.0717 -2.04459,0.21311 -3.87708,0.31417 l -3.33179,0.18374 z m 8.17925,1.03822 c 0.69795,-0.10387 0.90553,-0.36338 1.7198,-2.14994 0.50932,-1.11749 0.965723,-2.12955 1.014233,-2.24902 0.10321,-0.2542 -2.551493,-0.28528 -3.994583,-0.0468 -0.94856,0.15678 -1.04617,0.27174 -2.05052,2.41497 -0.58,1.23769 -1.05455,2.28892 -1.05455,2.33606 0,0.0963 3.14464,-0.12358 4.36562,-0.30529 z m -3.7107,-5.12547 c -0.3566,-0.92931 -2.39706,-3.95881 -2.62285,-3.8942 -0.13647,0.039 -0.78102,1.07558 -1.43234,2.3034 l -1.18421,2.23239 1.56464,2.19695 1.56463,2.19695 1.12993,-2.32266 c 0.62146,-1.27746 1.06255,-2.49824 0.9802,-2.71283 z m 6.488833,-1.11926 c 0,-0.14814 -0.610183,-1.152 -1.355963,-2.2308 -1.49873,-2.16799 -1.30955,-2.09329 -4.53102,-1.78904 -0.98227,0.0928 -1.78594,0.27235 -1.78594,0.39906 0,0.23009 1.67121,2.91089 2.28279,3.66184 0.25599,0.31433 0.85012,0.37934 2.85667,0.31257 1.48716,-0.0495 2.533463,-0.19553 2.533463,-0.35363 z m 229.475428,6.62343 c -0.57391,-0.78265 -1.57123,-2.17677 -2.21623,-3.09804 l -1.17274,-1.67505 1.71979,-3.30557 c 0.94588,-1.81807 1.89838,-3.40084 2.11667,-3.51727 0.21828,-0.11643 1.64703,-0.29068 3.175,-0.38723 1.52797,-0.0965 3.09798,-0.23835 3.4889,-0.31512 0.65974,-0.12956 0.86574,0.0917 2.86943,3.08253 l 2.15868,3.22211 -1.65346,3.39136 c -1.19819,2.45753 -1.80618,3.42791 -2.208,3.5241 -0.30498,0.073 -2.05753,0.21564 -3.89453,0.31695 l -3.34005,0.18422 z m 7.26003,-0.38626 c 0.43125,-0.0874 0.88601,-0.69967 1.65365,-2.22641 0.58234,-1.15823 1.05881,-2.16804 1.05881,-2.24403 0,-0.19295 -2.83001,-0.16749 -4.06519,0.0366 -0.98293,0.16237 -1.06225,0.25541 -2.05053,2.40468 -0.56541,1.22967 -1.02803,2.27651 -1.02803,2.32632 0,0.11133 3.61016,-0.13074 4.43129,-0.29713 z m -4.9067,-6.95634 c -0.70389,-1.10984 -1.39012,-2.0179 -1.5249,-2.0179 -0.24646,0 -2.49761,3.99717 -2.49761,4.43477 0,0.12885 0.68458,1.19046 1.5213,2.35913 l 1.5213,2.12485 1.12988,-2.44148 1.12988,-2.44148 z m 7.59063,0.87313 c 0.0571,-0.055 -0.5235,-1.05535 -1.29013,-2.22308 -1.5625,-2.37998 -1.37843,-2.31146 -5.094,-1.896 l -1.51783,0.16972 1.34186,2.11667 1.34186,2.11666 2.55725,-0.092 c 1.40647,-0.0506 2.60392,-0.13699 2.66099,-0.19195 z m -155.90796,5.56018 c -2.30886,-0.62196 -4.32313,-1.25603 -4.47614,-1.40904 -0.19456,-0.19456 0.37574,-1.07724 1.89666,-2.93558 1.39692,-1.70682 2.05163,-2.7002 1.83032,-2.77711 -0.18951,-0.0659 -1.77331,-0.4928 -3.51956,-0.94875 -1.74625,-0.45594 -3.28896,-0.93734 -3.42825,-1.06977 -0.15939,-0.15155 -0.0909,-0.40311 0.18478,-0.6788 0.40764,-0.40764 0.72801,-0.35986 4.61887,0.68882 2.29946,0.61976 4.28682,1.22731 4.41634,1.35009 0.13389,0.12693 -0.70116,1.39556 -1.93537,2.94029 l -2.17086,2.71703 2.59683,0.70419 c 1.42825,0.38731 3.10284,0.84325 3.7213,1.0132 0.80759,0.22192 1.12448,0.44727 1.12448,0.79966 0,0.26986 -0.14883,0.546 -0.33073,0.61363 -0.1819,0.0676 -2.2198,-0.3859 -4.52867,-1.00786 z m 237.48091,-0.49388 c -2.39464,-0.65665 -2.93751,-0.98648 -2.51817,-1.52997 0.14512,-0.18806 1.05685,-1.31129 2.0261,-2.49605 0.96922,-1.18477 1.76183,-2.25633 1.76133,-2.38125 0,-0.12493 -1.57808,-0.64386 -3.50573,-1.15318 -3.00958,-0.79519 -3.50483,-1.0003 -3.50483,-1.45159 0,-0.28904 0.1845,-0.56107 0.41,-0.6045 0.22551,-0.0434 2.13051,0.38193 4.23333,0.94523 l 3.82334,1.02419 0.0822,0.82695 c 0.0683,0.68721 -0.21116,1.18151 -1.65364,2.92506 -1.78676,2.15969 -1.94231,2.42008 -1.44579,2.42008 0.15949,0 0.93339,0.18704 1.71979,0.41565 1.22349,0.35568 1.42978,0.50837 1.42978,1.05833 0,0.76828 -0.0597,0.7683 -2.85766,10e-4 z m -362.928801,-9.9417 -3.43195,-3.43958 3.43195,-3.43959 c 1.88757,-1.89177 3.55445,-3.43958 3.70417,-3.43958 0.14972,0 1.81156,1.54277 3.69298,3.42838 l 3.42077,3.42838 -0.50282,0.60651 c -1.45102,1.75025 -6.12787,6.29506 -6.47795,6.29506 -0.22286,0 -1.94958,-1.54781 -3.83715,-3.43958 z m 6.35,-6.08542 -2.63925,-2.64919 -2.64583,2.64584 -2.64584,2.64583 2.63925,2.64919 2.63925,2.64919 2.64584,-2.64583 2.64583,-2.64584 z m 233.018221,6.26026 c -1.77519,-1.7956 -3.22759,-3.3749 -3.22759,-3.50954 0,-0.33186 6.68543,-6.98405 7.01894,-6.98405 0.1456,0 1.80472,1.54342 3.68694,3.42983 l 3.42223,3.42983 -3.41297,3.44934 c -1.87713,1.89713 -3.60354,3.44933 -3.83645,3.44933 -0.23294,0 -1.87593,-1.46913 -3.6511,-3.26474 z m 6.4297,-6.26026 -2.63925,-2.64919 -2.64583,2.64584 -2.64583,2.64583 2.63924,2.64919 2.63925,2.64919 2.64583,-2.64583 2.64583,-2.64584 z m -181.04115,6.6893 c -0.44926,-0.16139 -0.38332,-1.26402 0.16952,-2.83455 0.51846,-1.47287 1.14685,-2.0489 1.66735,-1.5284 0.26372,0.26372 0.20349,0.70191 -0.29957,2.17955 -0.65496,1.92381 -0.97896,2.38399 -1.5373,2.1834 z m 239.01559,-0.28963 c -0.0833,-0.13484 0.12224,-1.05674 0.45686,-2.04866 0.6369,-1.88809 1.24687,-2.59013 1.7839,-2.05311 0.4931,0.49312 -0.83066,4.16083 -1.53961,4.26567 -0.30229,0.0447 -0.61781,-0.0291 -0.70115,-0.1639 z m -232.77039,-1.85663 c -1.86435,-2.01461 -2.09274,-2.34471 -1.92489,-2.78211 0.0924,-0.24091 0.32198,-0.43801 0.51009,-0.43801 0.49923,0 3.04095,2.86907 3.04095,3.4326 0,0.87141 -0.7088,0.77879 -1.62615,-0.21248 z m 238.8625,-0.57978 c -1.55607,-1.68074 -1.79835,-2.27504 -1.04518,-2.56405 0.58465,-0.22435 3.30173,2.72947 3.19635,3.47486 -0.13184,0.93255 -0.64617,0.71479 -2.15117,-0.91081 z m -346.244681,0.29169 c -2.525453,-0.49667 -5.121491,-2.63117 -6.499855,-5.34429 -1.233086,-2.42717 -1.831325,-5.51529 -1.150008,-5.9363603 0.478424,-0.29569 0.783262,0.2491303 1.167836,2.0872003 0.504633,2.41189 1.208887,3.88964 2.543953,5.33801 1.301355,1.4118 2.557939,2.12615 4.456121,2.53324 0.731103,0.1568 1.408073,0.41257 1.504373,0.56839 0.16026,0.2593 -0.60343,1.03736 -0.94851,0.96635 -0.08133,-0.0167 -0.564587,-0.11238 -1.07391,-0.21254 z m 238.612941,-0.12577 c -3.7441,-1.33743 -6.12732,-4.31565 -6.972,-8.71266 -0.31469,-1.63814 -0.31262,-1.95174 0.0151,-2.2843503 0.56224,-0.5707 0.88686,-0.0926 1.3099,1.9293303 0.51456,2.45931 1.22519,3.9218 2.64125,5.43568 1.365,1.45929 2.32994,2.00045 4.33295,2.43002 1.35231,0.29002 1.64896,0.64667 1.04241,1.25322 -0.40295,0.40295 -1.14284,0.38695 -2.36956,-0.0512 z m -142.56919,-3.60656 c 0,-0.60464 0.6035,-0.89706 2.60043,-1.26001 1.48523,-0.26995 1.99523,-0.0978 1.85577,0.62629 -0.0693,0.36004 -0.5071,0.57288 -1.67967,0.81665 -2.31646,0.48157 -2.77653,0.45126 -2.77653,-0.18293 z m 239.33526,0.0946 c -0.24532,-0.63931 0.0332,-0.80148 2.09704,-1.22092 2.11425,-0.4297 2.57444,-0.34946 2.46139,0.42916 -0.0645,0.44385 -0.39082,0.61623 -1.66764,0.88082 -2.15157,0.44586 -2.6919,0.42921 -2.89079,-0.0891 z m -205.33902,-1.22848 c -1.59013,-1.59012 -1.50575,-4.44982 0.17297,-5.86237 0.43801,-0.3685703 0.93608,-0.6744903 1.10682,-0.6798303 0.17074,-0.005 3.46558,-0.35039 7.32189,-0.76678 7.91869,-0.85502 8.28989,-0.82028 9.08253,0.85007 0.53877,1.1353703 0.5742,3.1375503 0.0727,4.1073703 -0.87499,1.69205 -1.08087,1.74574 -10.34837,2.69848 -6.63026,0.68162 -6.36766,0.69392 -7.40852,-0.34694 z m 8.94539,-1.23229 c 2.44462,-0.26151 4.50628,-0.53699 4.58146,-0.61217 0.0752,-0.0752 0.003,-0.63142 -0.15934,-1.23608 -0.16282,-0.60466 -0.21881,-1.61438 -0.12442,-2.24381 0.16339,-1.0895503 0.14186,-1.1399803 -0.44896,-1.0518203 -0.34132,0.0509 -3.06136,0.3405103 -6.04454,0.6435103 -5.11224,0.51924 -5.45817,0.58896 -6.01927,1.21321 -0.78639,0.87489 -0.79721,2.42142 -0.0238,3.40463 0.5467,0.69501 0.64139,0.71853 2.18282,0.54227 0.88623,-0.10134 3.61146,-0.39822 6.05608,-0.65974 z m 7.16762,-1.20766 c 1.13756,-1.13756 0.66444,-4.0925403 -0.65525,-4.0925403 -1.01742,0 -1.39739,2.2364003 -0.63158,3.7173103 0.45667,0.88311 0.70619,0.95587 1.28683,0.37523 z m 223.80578,3.00501 c -0.77827,-0.38858 -1.65878,-2.24806 -1.65878,-3.50308 0,-1.33234 0.69763,-2.73742 1.58766,-3.19768 0.41363,-0.2138803 3.42453,-0.6613503 7.04194,-1.0465303 3.47565,-0.37008 6.72198,-0.72753 7.21405,-0.79433 1.42428,-0.19334 2.52706,0.41871 3.03308,1.68339 0.81145,2.0280403 0.37002,4.2999303 -1.01134,5.2050403 -1.21368,0.79523 -15.08996,2.21071 -16.20661,1.65319 z m 7.15246,-1.65114 c 3.17267,-0.34285 5.81858,-0.67345 5.87978,-0.73466 0.0612,-0.0612 -0.0167,-0.57492 -0.17317,-1.14157 -0.15645,-0.56665 -0.21079,-1.58562 -0.12076,-2.26437 0.15534,-1.1709803 0.13304,-1.2295603 -0.43595,-1.1454903 -0.32983,0.0487 -3.04046,0.3365103 -6.02364,0.6395103 -5.11225,0.51924 -5.45817,0.58896 -6.01927,1.21321 -0.70408,0.78332 -0.78351,2.14725 -0.19163,3.29177 0.22201,0.42933 0.60896,0.77709 0.85989,0.77279 0.25093,-0.004 3.05205,-0.28833 6.22475,-0.63119 z m 8.5004,-1.45712 c 1.09596,-1.21102 0.65045,-3.9892903 -0.63968,-3.9892903 -1.04188,0 -1.4341,2.2162503 -0.65786,3.7173103 0.47357,0.9158 0.6764,0.95831 1.29754,0.27198 z m -278.71036,1.97543 c -0.48585,-0.58542 -0.14059,-0.87293 1.44314,-1.20171 2.02519,-0.42043 3.17745,-0.27744 3.17745,0.39431 0,0.43949 -0.28585,0.58037 -1.71979,0.84754 -2.2558,0.42031 -2.5217,0.41663 -2.9008,-0.0401 z m 239.27427,10e-4 c -0.23853,-0.62158 0.0882,-0.8786 1.50235,-1.18188 1.80835,-0.38783 3.07422,-0.36097 3.23911,0.0687 0.25022,0.65203 -0.19815,0.90717 -2.11458,1.20332 -2.40932,0.37232 -2.44996,0.37092 -2.62688,-0.0902 z M 36.802789,14.368234 c -0.86513,-0.34517 -1.56179,-0.99366 -2.02057,-1.88085 -0.30492,-0.58966 -1.95362,-10.7254903 -1.95362,-12.01045035 0,-0.27082 0.41623,-0.3655 1.60686,-0.3655 h 1.60687 l 3.08949,2.66409005 c 4.22375,3.64217 5.33844,4.98825 5.33844,6.44661 0,2.0768303 -2.01076,4.2813903 -4.60871,5.0529003 -1.49506,0.44399 -2.131,0.46337 -3.05876,0.0932 z m 4.22229,-2.18315 c 2.06514,-1.36664 2.71559,-3.3664503 1.42513,-4.3815303 -2.74742,-2.16112 -8.48367,2.5905903 -5.83917,4.8369603 0.83672,0.71075 2.9871,0.48888 4.41404,-0.45543 z m -2.9815,-5.6951303 c 0.61266,-0.30673 1.36673,-0.55769 1.67569,-0.55769 0.30897,0 0.52207,-0.10112 0.47356,-0.22472 -0.12761,-0.32516 -5.60351,-5.05381005 -5.86071,-5.06094005 -0.11894,-0.003 -0.15645,0.20236 -0.0833,0.45702005 0.0731,0.25466 0.34243,2.0415 0.59848,3.97075 l 0.46555,3.50773 0.80841,-0.76723 c 0.44462,-0.42197 1.30968,-1.01819 1.92235,-1.32492 z M 275.82831,14.162104 c -1.5775,-0.71647 -1.89746,-1.64063 -2.8598,-8.2602603 l -0.84178,-5.79041005 h 1.67812 1.67812 l 3.35773,2.94871005 c 1.84673,1.62179 3.69231,3.34641 4.10128,3.83249 0.89154,1.0596 1.14813,2.3472 0.72392,3.6325703 -0.43958,1.33189 -2.6462,3.24195 -4.31937,3.73882 -1.72006,0.51081 -2.19972,0.49692 -3.51822,-0.10192 z m 4.06135,-1.65036 c 1.35488,-0.65589 2.70561,-2.36574 2.70561,-3.4249703 0,-1.93522 -3.22819,-2.47309 -5.211,-0.86825 -2.0765,1.68065 -2.62281,3.1331403 -1.57324,4.1827203 0.86029,0.8603 2.44126,0.90313 4.07863,0.1105 z m -2.16847,-6.2083103 c 0.48858,-0.20414 1.14485,-0.37117 1.45838,-0.37117 0.47803,0 0.51663,-0.0644 0.239,-0.39891 -0.62076,-0.74797 -5.57173,-4.96378005 -5.69021,-4.84529005 -0.065,0.0649 0.13917,1.86113005 0.45361,3.99154005 l 0.57165,3.87347 1.03963,-0.93924 c 0.57179,-0.51658 1.43936,-1.10626 1.92794,-1.3104 z M 120.88468,12.227994 c -1.37183,-1.48441 -1.49404,-1.81394 -0.86601,-2.3351603 0.34484,-0.2862 0.5911,-0.14015 1.61837,0.9597903 1.2039,1.28907 1.72377,2.17423 1.50008,2.55412 -0.29434,0.49991 -1.08204,0.0877 -2.25244,-1.17875 z m 239.39032,0.0257 c -1.24198,-1.38137 -1.51408,-2.18131 -0.83116,-2.4433703 0.53343,-0.20469 3.04813,2.4313303 3.05234,3.1995903 0.006,1.01092 -0.91377,0.69794 -2.22118,-0.75622 z m -234.5104,-0.14645 c 0.2097,-1.48721 1.1652,-3.5291003 1.65144,-3.5291003 0.71556,0 0.74343,0.74165 0.0971,2.5837603 -0.51175,1.45856 -0.74008,1.7981 -1.25846,1.87139 -0.59342,0.0839 -0.62428,0.0256 -0.49009,-0.92605 z m 239.26795,0.73589 c -0.19306,-0.31238 0.85654,-3.5076603 1.30424,-3.9704403 0.60285,-0.62319 1.27931,-0.14714 1.09567,0.77107 -0.31504,1.5752303 -1.27543,3.4322903 -1.77499,3.4322903 -0.26453,0 -0.54575,-0.10481 -0.62492,-0.23292 z M 219.5333,7.7182437 c -0.50093,-0.9095 -1.6202,-2.96333 -2.48729,-4.56406 l -1.57651,-2.91042005 0.67536,-0.0888 c 0.40003,-0.0526 0.80215,0.0846 0.98638,0.33652 0.92864,1.26998005 4.37442,8.15827005 4.24708,8.49012005 -0.30463,0.79387 -0.95861,0.34607 -1.84502,-1.26332 z M 90.582579,6.2748137 c -0.12973,-0.33808 0.58568,-1.16718 2.85257,-3.30587 2.74118,-2.58616005 3.1194,-2.85476005 4.02162,-2.85605005 l 0.99589,-0.001 -2.71568,2.61121005 c -4.3379,4.17103 -4.79581,4.48659 -5.1544,3.55213 z m 239.448771,0.002 c -0.12832,-0.33437 0.59116,-1.17903 2.81715,-3.30729 2.70095,-2.58239005 3.08227,-2.85694005 3.95092,-2.84469005 l 0.96147,0.0136 -3.4331,3.29373005 c -1.8882,1.81156 -3.58857,3.29374 -3.77862,3.29374 -0.19002,0 -0.42304,-0.20207 -0.51782,-0.44905 z m -143.63842,-0.38725 c -0.11223,-0.18158 0.23288,-0.6821 0.84428,-1.22446 2.24631,-1.99269 3.32431,-3.08682 3.74799,-3.80405005 0.31766,-0.53775 0.65124,-0.74978 1.17961,-0.74978 0.91999,0 0.91786,0.14527 -0.0235,1.60185005 -0.8638,1.33657 -2.32188,2.76485 -3.86528,3.78628 -1.15624,0.76521 -1.59511,0.85614 -1.8831,0.39016 z"
     id="path2802" />
</svg>
