<?xml version="1.0" encoding="UTF-8" standalone="no"?>
<svg
   xmlns:dc="http://purl.org/dc/elements/1.1/"
   xmlns:cc="http://creativecommons.org/ns#"
   xmlns:rdf="http://www.w3.org/1999/02/22-rdf-syntax-ns#"
   xmlns:svg="http://www.w3.org/2000/svg"
   xmlns="http://www.w3.org/2000/svg"
   width="510"
   height="534.21698"
   viewBox="0 0 134.9375 141.34491"
   version="1.1"
   id="svg8">
  <defs
     id="defs2" />
  <metadata
     id="metadata5">
    <rdf:RDF>
      <cc:Work
         rdf:about="">
        <dc:format>image/svg+xml</dc:format>
        <dc:type
           rdf:resource="http://purl.org/dc/dcmitype/StillImage" />
        <dc:title></dc:title>
      </cc:Work>
    </rdf:RDF>
  </metadata>
  <path
     style="opacity:1;fill:#2965f1;fill-opacity:1;stroke:none;stroke-width:7.95445;stroke-linecap:round;stroke-linejoin:round;stroke-opacity:1;paint-order:stroke fill markers"
     d="m 53.292503,140.25293 c -0.7823,-0.26973 -8.91086,-4.07171 -35.0123,-16.3763 -7.05592,-3.32627 -13.7309842,-6.44781 -14.8334642,-6.93676 -2.15378,-0.95522 -2.27867,-1.39716 -1.48599,-5.25828 0.68801,-3.35119 4.28876,-23.488493 4.29068,-23.995673 8e-4,-0.23709 4.9327642,-0.43107 10.9596942,-0.43107 9.86343,0 10.95805,0.0955 10.95805,0.95624 0,0.52592 -0.4064,3.23569 -0.90311,6.0217 -0.49671,2.78603 -0.79739,5.166758 -0.66818,5.290508 0.63906,0.612115 31.88342,13.791875 32.58057,13.743415 0.44431,-0.0309 4.172718,-1.34269 8.285358,-2.91514 4.11264,-1.57245 12.23183,-4.61502 18.04263,-6.76125 l 10.56511,-3.902225 0.52607,-2.0497 c 0.28933,-1.127338 1.252894,-6.575838 2.141234,-12.107778 0.88835,-5.53195 1.845005,-11.09263 2.125915,-12.35707 0.28091,-1.26444 0.51648,-2.7516 0.52349,-3.30479 0.012,-0.95023 -2.527805,-1.00582 -45.957597,-1.00582 -25.2837,0 -45.9703603,-0.11714 -45.9703603,-0.26031 0,-0.40337 3.7021403,-22.27682 4.0172703,-23.73537 l 0.27941,-1.29318 h 46.10052 46.100517 l 1.48124,-8.19016 c 0.81468,-4.50458 1.47315,-8.38411 1.46327,-8.6212 -0.01,-0.23708 -20.730699,-0.43105 -46.046269,-0.43105 H 16.827953 l 0.28919,-1.29319 c 0.15906,-0.71125 0.79211,-4.39681 1.40679,-8.19015 0.61468,-3.79333 1.4892,-8.7720703 1.94337,-11.0638807 l 0.82578,-4.16691 h 55.822868 c 54.378649,0 55.822869,0.0281 55.822869,1.08601 0,0.5973 -0.35783,3.11899 -0.79519,5.6037704 -0.43734,2.4847803 -1.50996,9.3025603 -2.38358,15.1506103 -2.2675,15.17861 -7.27654,47.67691 -8.85872,57.4747 -1.33364,8.25864 -2.73046,17.361698 -4.36554,28.449983 -0.46613,3.1611 -1.02621,5.96183 -1.24462,6.22383 -0.36465,0.43742 -11.84781,5.24189 -25.650009,10.73178 -3.08697,1.22786 -8.49917,3.42047 -12.02713,4.87249 -20.085158,8.26649 -23.206138,9.4268 -24.321528,9.04222 z"
     id="path843" />
</svg>
