<?xml version="1.0" encoding="UTF-8" standalone="no"?>
<svg
   width="509.74399"
   height="385.362"
   viewBox="0 0 134.86976 101.96036"
   version="1.1"
   id="svg8"
   inkscape:version="1.1 (c68e22c387, 2021-05-23)"
   sodipodi:docname="gamil.svg"
   xmlns:inkscape="http://www.inkscape.org/namespaces/inkscape"
   xmlns:sodipodi="http://sodipodi.sourceforge.net/DTD/sodipodi-0.dtd"
   xmlns="http://www.w3.org/2000/svg"
   xmlns:svg="http://www.w3.org/2000/svg"
   xmlns:rdf="http://www.w3.org/1999/02/22-rdf-syntax-ns#"
   xmlns:cc="http://creativecommons.org/ns#"
   xmlns:dc="http://purl.org/dc/elements/1.1/">
  <defs
     id="defs2">
    <clipPath
       clipPathUnits="userSpaceOnUse"
       id="clipPath1716">
      <rect
         style="opacity:0.313225;fill:#1948e9;stroke-width:1.265;stroke-linecap:round;stroke-linejoin:round"
         id="rect1718"
         width="134.97112"
         height="100.49334"
         x="44.63401"
         y="97.28611"
         rx="1.0690876"
         ry="1.6461595" />
    </clipPath>
  </defs>
  <sodipodi:namedview
     id="base"
     pagecolor="#1b1a1a"
     bordercolor="#666666"
     borderopacity="1.0"
     inkscape:pageopacity="0"
     inkscape:pageshadow="2"
     inkscape:zoom="0.49497475"
     inkscape:cx="78.791898"
     inkscape:cy="229.30463"
     inkscape:document-units="mm"
     inkscape:current-layer="svg8"
     inkscape:document-rotation="0"
     showgrid="false"
     fit-margin-top="0"
     fit-margin-left="0"
     fit-margin-right="0"
     fit-margin-bottom="0"
     inkscape:window-width="1267"
     inkscape:window-height="729"
     inkscape:window-x="26"
     inkscape:window-y="0"
     inkscape:window-maximized="0"
     inkscape:pagecheckerboard="0"
     units="px"
     height="378.362px" />
  <metadata
     id="metadata5">
    <rdf:RDF>
      <cc:Work
         rdf:about="">
        <dc:format>image/svg+xml</dc:format>
        <dc:type
           rdf:resource="http://purl.org/dc/dcmitype/StillImage" />
      </cc:Work>
    </rdf:RDF>
  </metadata>
  <path
     style="opacity:1;fill:#ea4335;fill-opacity:1;stroke-width:2.55569;stroke-linecap:round;stroke-linejoin:round"
     d="M 49.638522,62.609735 31.626054,49.108321 V 29.660729 c 0,-15.479771 0.136324,-19.341224 0.668173,-18.926238 1.118426,0.872672 25.458835,18.924825 30.731592,22.792197 l 4.940086,3.623369 1.741654,-1.228985 c 1.786583,-1.260692 32.744711,-24.22027 33.947611,-25.176681 0.53203,-0.42301 0.66817,3.433943 0.66817,18.929625 V 49.134891 L 86.497239,62.452995 C 76.692892,69.777949 68.44161,75.847606 68.161067,75.941116 67.880526,76.034616 59.545382,70.035499 49.638522,62.609735 Z"
     id="path1793" />
  <path
     style="opacity:1;fill:#c5221f;fill-opacity:1;stroke-width:2.55569;stroke-linecap:round;stroke-linejoin:round"
     d="M 16.95256,38.121638 2.1018956,27.069283 2.2617146,19.051199 C 2.4434566,9.9333513 2.9817516,8.2647462 6.8766033,4.7459857 c 2.058405,-1.859645 6.3645167,-3.601842 8.9025197,-3.601842 2.730695,0 6.353608,1.713077 11.154253,5.2742354 l 5.137125,3.8107619 v 19.511756 c 0,10.731466 -0.06014,19.494054 -0.133636,19.472424 -0.0735,-0.0216 -6.816438,-5.012889 -14.984305,-11.091683 z"
     id="path2416" />
  <path
     style="opacity:1;fill:#4285f4;fill-opacity:1;stroke-width:2.55569;stroke-linecap:round;stroke-linejoin:round"
     d="M 7.4010883,100.24164 C 4.9465943,99.497803 3.2484186,98.042802 2.1240986,95.720277 1.0457606,93.492727 1.0273556,92.808997 1.1624046,59.992015 l 0.137684,-33.457271 15.1629814,11.286791 15.162984,11.286786 -0.324879,2.70331 c -0.178683,1.48681 -0.326969,13.106761 -0.329522,25.822095 l -0.0047,23.118784 -11.091688,-0.0459 c -6.100426,-0.0253 -11.7138307,-0.23448 -12.4742297,-0.46492 z"
     id="path3116" />
  <path
     style="fill:#34a853;fill-opacity:1;stroke-width:2.55569;stroke-linecap:round;stroke-linejoin:round"
     d="m 127.70605,100.91197 c 2.45449,-0.74383 4.15266,-2.198835 5.27698,-4.521365 1.07834,-2.22755 1.09675,-2.91128 0.9617,-35.72826 l -0.13769,-33.457271 -15.16298,11.286791 -15.16298,11.286786 0.32488,2.70331 c 0.17868,1.48681 0.32697,13.106761 0.32952,25.822097 l 0.005,23.118772 11.09169,-0.0459 c 6.10042,-0.0253 11.71383,-0.23448 12.47423,-0.46492 z"
     id="path3116-9" />
  <path
     style="opacity:1;fill:#fbbc04;fill-opacity:1;stroke-width:2.55569;stroke-linecap:round;stroke-linejoin:round"
     d="m 103.4923,30.120615 0.0113,-19.658034 5.15745,-3.7417719 c 7.16585,-5.1988894 7.36189,-5.2870674 11.65797,-5.2438294 4.64962,0.0468 4.89494,0.112199 7.49897,1.999184 5.16268,3.7410771 6.07721,6.1491126 6.10832,16.0836233 l 0.0235,7.49359 -11.04338,8.275312 c -6.07385,4.551421 -12.92931,9.664608 -15.23436,11.362637 l -4.19099,3.087325 z"
     id="path4245" />
</svg>
