<?xml version="1.0" encoding="UTF-8" standalone="no"?>
<svg
   xmlns:dc="http://purl.org/dc/elements/1.1/"
   xmlns:cc="http://creativecommons.org/ns#"
   xmlns:rdf="http://www.w3.org/1999/02/22-rdf-syntax-ns#"
   xmlns:svg="http://www.w3.org/2000/svg"
   xmlns="http://www.w3.org/2000/svg"
   width="515"
   height="540"
   viewBox="0 0 136.26042 142.875"
   version="1.1"
   id="svg8">
  <defs
     id="defs2" />
  <metadata
     id="metadata5">
    <rdf:RDF>
      <cc:Work
         rdf:about="">
        <dc:format>image/svg+xml</dc:format>
        <dc:type
           rdf:resource="http://purl.org/dc/dcmitype/StillImage" />
        <dc:title></dc:title>
      </cc:Work>
    </rdf:RDF>
  </metadata>
  <g
     id="g4538"
     transform="matrix(3.6369093,0,0,3.6839095,-507.89513,-635.48893)"
     style="stroke:#f16529;stroke-width:0.421632;stroke-linecap:square;stroke-miterlimit:4;stroke-dasharray:none;stroke-opacity:1">
    <path
       style="fill:#f16529;fill-opacity:1;stroke:#f16529;stroke-width:0.421632;stroke-linecap:square;stroke-linejoin:round;stroke-miterlimit:4;stroke-dasharray:none;stroke-opacity:1;paint-order:stroke fill markers"
       d="m 142.41576,192.44915 c -0.13734,-0.57089 -1.98689,-18.40604 -1.98172,-19.10977 0.003,-0.26014 2.10255,-0.33408 9.49067,-0.33408 h 9.48823 l 0.0932,3.20774 0.0932,3.20774 -5.52817,-5.3e-4 -5.52817,-5.3e-4 0.21549,2.20497 c 0.11851,1.21274 0.29761,2.80633 0.39795,3.54132 l 0.18251,1.33635 5.05474,0.0733 5.05478,0.0733 v 3.20077 3.20077 h -8.44403 -8.444 z"
       id="path4526" />
    <path
       style="fill:#f16529;fill-opacity:1;stroke:#f16529;stroke-width:0.421632;stroke-linecap:square;stroke-linejoin:round;stroke-miterlimit:4;stroke-dasharray:none;stroke-opacity:1;paint-order:stroke fill markers"
       d="m 159.41294,176.21253 v -3.20723 h 8.57888 8.57885 l -0.15987,1.60362 -0.31974,3.20723 -0.15989,1.60362 h -8.2591 -8.25913 z"
       id="path4528" />
    <path
       style="fill:#f16529;fill-opacity:1;stroke:#f16529;stroke-width:0.421632;stroke-linecap:square;stroke-linejoin:round;stroke-miterlimit:4;stroke-dasharray:none;stroke-opacity:1;paint-order:stroke fill markers"
       d="m 157.54144,207.39699 v -3.3505 l 1.40316,-0.40246 c 0.77174,-0.22136 2.42546,-0.66108 3.67496,-0.97715 1.24949,-0.31608 2.40427,-0.68462 2.56616,-0.81898 0.1619,-0.13436 0.3719,-1.23664 0.46662,-2.4495 0.0947,-1.21287 0.25027,-3.13731 0.34558,-4.27655 l 0.1733,-2.07134 h -4.31488 -4.3149 v -3.20723 -3.20724 h 7.88445 7.88445 l -0.004,0.73499 c -0.003,0.40425 -0.30335,3.86205 -0.6694,7.684 -0.36602,3.82196 -0.74382,8.01148 -0.83952,9.31006 -0.15827,2.14715 -0.23032,2.38244 -0.79542,2.59729 -0.34176,0.12994 -3.30242,0.95501 -6.57928,1.83349 -3.27684,0.87849 -6.1657,1.67698 -6.41964,1.77443 -0.42236,0.16207 -0.46175,-0.10869 -0.46175,-3.17331 z"
       id="path4530" />
    <path
       style="fill:#f16529;fill-opacity:1;stroke:#f16529;stroke-width:0.421632;stroke-linecap:square;stroke-linejoin:round;stroke-miterlimit:4;stroke-dasharray:none;stroke-opacity:1;paint-order:stroke fill markers"
       d="m 150.612,208.80574 -7.09213,-1.84953 -0.34179,-3.66846 c -0.188,-2.01764 -0.41628,-4.36466 -0.50729,-5.21559 l -0.16549,-1.54714 h 3.48311 3.48315 l 0.19607,2.68103 0.19608,2.68103 0.86701,0.26294 c 0.47687,0.14462 2.1785,0.58741 3.78141,0.98397 1.60294,0.39657 3.0121,0.80713 3.13149,0.91236 0.11939,0.10523 0.18184,1.63528 0.13879,3.40012 l -0.0783,3.2088 z"
       id="path4532" />
  </g>
</svg>
