<?xml version="1.0" encoding="UTF-8" standalone="no"?>
<svg
   width="210"
   height="190"
   viewBox="0 0 55.5625 50.270833"
   version="1.1"
   id="svg8"
   inkscape:version="1.1 (c68e22c387, 2021-05-23)"
   sodipodi:docname="out-look-1.svg"
   xmlns:inkscape="http://www.inkscape.org/namespaces/inkscape"
   xmlns:sodipodi="http://sodipodi.sourceforge.net/DTD/sodipodi-0.dtd"
   xmlns="http://www.w3.org/2000/svg"
   xmlns:svg="http://www.w3.org/2000/svg"
   xmlns:rdf="http://www.w3.org/1999/02/22-rdf-syntax-ns#"
   xmlns:cc="http://creativecommons.org/ns#"
   xmlns:dc="http://purl.org/dc/elements/1.1/">
  <defs
     id="defs2">
    <linearGradient
       id="EbYfY8dFz67vGgREkuPi4b"
       x1="37"
       x2="37"
       y1="152.862"
       y2="134.52699"
       gradientTransform="matrix(1.0583333,0,0,-1.0583333,-5.7452367,162.52976)"
       gradientUnits="userSpaceOnUse">
      <stop
         offset=".052"
         stop-color="#0053bf"
         id="stop13" />
      <stop
         offset=".774"
         stop-color="#2185e6"
         id="stop15" />
    </linearGradient>
    <linearGradient
       id="EbYfY8dFz67vGgREkuPi4c"
       x1="52.296001"
       x2="52.296001"
       y1="40.922001"
       y2="26.503"
       gradientUnits="userSpaceOnUse"
       gradientTransform="matrix(1.0583333,0,0,1.0583333,-5.7452367,-8.9202372)">
      <stop
         offset="0"
         stop-color="#003d8c"
         id="stop20" />
      <stop
         offset="1"
         stop-color="#2185e6"
         id="stop22" />
    </linearGradient>
    <linearGradient
       id="EbYfY8dFz67vGgREkuPi4d"
       x1="49"
       x2="49"
       y1="37"
       y2="48.167"
       gradientUnits="userSpaceOnUse"
       gradientTransform="matrix(1.0583333,0,0,1.0583333,-5.7452367,-8.9202372)">
      <stop
         offset="0"
         stop-color="#1b71e2"
         id="stop27" />
      <stop
         offset="1"
         stop-color="#1f8ce8"
         id="stop29" />
    </linearGradient>
    <linearGradient
       id="EbYfY8dFz67vGgREkuPi4e"
       x1="48.5"
       x2="48.5"
       y1="15"
       y2="26"
       gradientUnits="userSpaceOnUse"
       gradientTransform="matrix(1.0583333,0,0,1.0583333,-5.7452367,-8.9202372)">
      <stop
         offset="0"
         stop-color="#3cb5ea"
         id="stop34" />
      <stop
         offset="1"
         stop-color="#7ddefb"
         id="stop36" />
    </linearGradient>
    <linearGradient
       id="EbYfY8dFz67vGgREkuPi4f"
       x1="36.938999"
       x2="36.938999"
       y1="37"
       y2="48.167"
       gradientUnits="userSpaceOnUse"
       gradientTransform="matrix(1.0583333,0,0,1.0583333,-5.7452367,-8.9202372)">
      <stop
         offset=".052"
         stop-color="#0053bf"
         id="stop41" />
      <stop
         offset=".774"
         stop-color="#2185e6"
         id="stop43" />
    </linearGradient>
    <linearGradient
       id="EbYfY8dFz67vGgREkuPi4g"
       x1="48.5"
       x2="48.5"
       y1="26"
       y2="37"
       gradientUnits="userSpaceOnUse"
       gradientTransform="matrix(1.0583333,0,0,1.0583333,-5.7452367,-8.9202372)">
      <stop
         offset="0"
         stop-color="#2185e6"
         id="stop48" />
      <stop
         offset="1"
         stop-color="#2eb5f0"
         id="stop50" />
    </linearGradient>
    <linearGradient
       id="EbYfY8dFz67vGgREkuPi4h"
       x1="34"
       x2="35"
       y1="46"
       y2="46"
       gradientTransform="matrix(0,11,11,0,-469.5,-348)"
       gradientUnits="userSpaceOnUse">
      <stop
         offset="0"
         stop-color="#1b71e2"
         id="stop55" />
      <stop
         offset="1"
         stop-color="#1f8ce8"
         id="stop57" />
    </linearGradient>
    <linearGradient
       id="EbYfY8dFz67vGgREkuPi4i"
       x1="40.620998"
       x2="50.441002"
       y1="51.757999"
       y2="35.187"
       gradientUnits="userSpaceOnUse"
       gradientTransform="matrix(1.0583333,0,0,1.0583333,-5.7452367,-8.9202372)">
      <stop
         offset=".155"
         stop-color="#2185e6"
         id="stop62" />
      <stop
         offset=".198"
         stop-color="#238be7"
         id="stop64" />
      <stop
         offset=".412"
         stop-color="#29a2ec"
         id="stop66" />
      <stop
         offset=".613"
         stop-color="#2db0ef"
         id="stop68" />
      <stop
         offset=".785"
         stop-color="#2eb5f0"
         id="stop70" />
    </linearGradient>
    <linearGradient
       id="EbYfY8dFz67vGgREkuPi4j"
       x1="26.030001"
       x2="35.048"
       y1="29.878"
       y2="49.217999"
       gradientUnits="userSpaceOnUse"
       gradientTransform="matrix(1.0583333,0,0,1.0583333,-5.7452367,-8.9202372)">
      <stop
         offset="0"
         stop-color="#2185e6"
         id="stop75" />
      <stop
         offset="1"
         stop-color="#2eb5f0"
         id="stop77" />
    </linearGradient>
    <linearGradient
       id="EbYfY8dFz67vGgREkuPi4k"
       x1="25.5"
       x2="25.5"
       y1="32.435001"
       y2="73.168999"
       gradientUnits="userSpaceOnUse"
       gradientTransform="matrix(1.0583333,0,0,1.0583333,-5.7452367,-8.9202372)">
      <stop
         offset="0"
         stop-color="#2185e6"
         id="stop82" />
      <stop
         offset="1"
         stop-color="#2eb5f0"
         id="stop84" />
    </linearGradient>
    <linearGradient
       id="EbYfY8dFz67vGgREkuPi4l"
       x1="55.5"
       x2="55.5"
       y1="2.652"
       y2="43.386002"
       gradientTransform="matrix(-1.0583333,0,0,-1.0583333,106.43808,37.646431)"
       gradientUnits="userSpaceOnUse">
      <stop
         offset=".036"
         stop-color="#2185e6"
         id="stop89" />
      <stop
         offset=".039"
         stop-color="#2186e6"
         id="stop91" />
      <stop
         offset=".161"
         stop-color="#279bea"
         id="stop93" />
      <stop
         offset=".296"
         stop-color="#2baaee"
         id="stop95" />
      <stop
         offset=".456"
         stop-color="#2db2ef"
         id="stop97" />
      <stop
         offset=".699"
         stop-color="#2eb5f0"
         id="stop99" />
    </linearGradient>
    <linearGradient
       id="EbYfY8dFz67vGgREkuPi4m"
       x1="36.5"
       x2="36.5"
       y1="15"
       y2="26"
       gradientUnits="userSpaceOnUse"
       gradientTransform="matrix(1.0583333,0,0,1.0583333,-5.7452367,-8.9202372)">
      <stop
         offset="0"
         stop-color="#2185e6"
         id="stop104" />
      <stop
         offset="1"
         stop-color="#2eb5f0"
         id="stop106" />
    </linearGradient>
    <linearGradient
       id="EbYfY8dFz67vGgREkuPi4n"
       x1="25"
       x2="25"
       y1="11.087"
       y2="22.087"
       gradientUnits="userSpaceOnUse"
       gradientTransform="matrix(1.0583333,0,0,1.0583333,-5.7452367,-8.9202372)">
      <stop
         offset="0"
         stop-color="#1b71e2"
         id="stop111" />
      <stop
         offset="1"
         stop-color="#1f8ce8"
         id="stop113" />
    </linearGradient>
    <linearGradient
       id="EbYfY8dFz67vGgREkuPi4o"
       x1="4.0209999"
       x2="32.888"
       y1="125.23"
       y2="135.737"
       gradientTransform="matrix(1.0583333,0,0,-1.0583333,-5.7452367,162.52976)"
       gradientUnits="userSpaceOnUse">
      <stop
         offset="0"
         stop-color="#155cde"
         id="stop118" />
      <stop
         offset=".486"
         stop-color="#2185e6"
         id="stop120" />
      <stop
         offset="1"
         stop-color="#2eb5f0"
         id="stop122" />
    </linearGradient>
  </defs>
  <sodipodi:namedview
     id="base"
     pagecolor="#1b1a1a"
     bordercolor="#666666"
     borderopacity="1.0"
     inkscape:pageopacity="0"
     inkscape:pageshadow="2"
     inkscape:zoom="0.7"
     inkscape:cx="297.14286"
     inkscape:cy="126.42857"
     inkscape:document-units="px"
     inkscape:current-layer="svg8"
     inkscape:document-rotation="0"
     showgrid="false"
     fit-margin-top="0"
     fit-margin-left="0"
     fit-margin-right="0"
     fit-margin-bottom="0"
     inkscape:window-width="1267"
     inkscape:window-height="729"
     inkscape:window-x="26"
     inkscape:window-y="0"
     inkscape:window-maximized="0"
     inkscape:pagecheckerboard="0"
     units="px" />
  <metadata
     id="metadata5">
    <rdf:RDF>
      <cc:Work
         rdf:about="">
        <dc:format>image/svg+xml</dc:format>
        <dc:type
           rdf:resource="http://purl.org/dc/dcmitype/StillImage" />
      </cc:Work>
    </rdf:RDF>
  </metadata>
  <path
     fill="url(#EbYfY8dFz67vGgREkuPi4b)"
     d="m 52.463091,6.9547608 -19.049997,1.05834 -19.049999,-1.05834 v -1.05833 c 0,-2.92206 2.369608,-5.291668 5.291666,-5.291668 h 27.51667 c 2.92205,0 5.29166,2.369608 5.29166,5.291668 z"
     id="path18"
     style="fill:url(#EbYfY8dFz67vGgREkuPi4b);stroke-width:1.05833" />
  <path
     fill="url(#EbYfY8dFz67vGgREkuPi4c)"
     d="m 53.593391,24.350591 -8.963022,-5.22182 v 15.26011 h 9.944102 v -8.33332 c -0.001,-0.70273 -0.37465,-1.35149 -0.98108,-1.70497 z"
     id="path25"
     style="fill:url(#EbYfY8dFz67vGgREkuPi4c);stroke-width:1.05833" />
  <path
     fill="url(#EbYfY8dFz67vGgREkuPi4d)"
     d="m 39.763094,30.238091 h 13.758337 v 11.81842 h -14.81667 z"
     id="path32"
     style="fill:url(#EbYfY8dFz67vGgREkuPi4d);stroke-width:1.05833" />
  <path
     fill="url(#EbYfY8dFz67vGgREkuPi4e)"
     d="M 39.763094,6.9547608 H 52.463091 V 18.596431 h -13.75833 z"
     id="path39"
     style="fill:url(#EbYfY8dFz67vGgREkuPi4e);stroke-width:1.05833" />
  <path
     fill="url(#EbYfY8dFz67vGgREkuPi4f)"
     d="m 26.933978,30.238091 h 12.829116 v 11.81842 H 26.933978 Z"
     id="path46"
     style="fill:url(#EbYfY8dFz67vGgREkuPi4f);stroke-width:1.05833" />
  <path
     fill="url(#EbYfY8dFz67vGgREkuPi4g)"
     d="m 39.763094,18.596431 h 12.699997 v 11.64166 h -13.75833 z"
     id="path53"
     style="fill:url(#EbYfY8dFz67vGgREkuPi4g);stroke-width:1.05833" />
  <polyline
     fill="url(#EbYfY8dFz67vGgREkuPi4h)"
     points="43,26 30,26 30,37 43,37 43,26"
     id="polyline60"
     style="fill:url(#EbYfY8dFz67vGgREkuPi4h)"
     transform="matrix(1.0583333,0,0,1.0583333,-5.7452367,-8.9202372)" />
  <path
     fill="url(#EbYfY8dFz67vGgREkuPi4i)"
     d="m 54.579761,26.004761 v 16.93334 c 0,3.50732 -2.84268,6.35 -6.35,6.35 H 35.953094 l -14.732,-4.46617 z"
     id="path73"
     style="fill:url(#EbYfY8dFz67vGgREkuPi4i);stroke-width:1.05833" />
  <path
     fill="url(#EbYfY8dFz67vGgREkuPi4j)"
     d="m 52.156181,47.922851 c -1.0795,0.85725 -2.44475,1.36525 -3.92642,1.36525 h -28.575 c -3.503083,0 -6.35,-2.84692 -6.35,-6.35 v -16.93334 z"
     id="path80"
     style="fill:url(#EbYfY8dFz67vGgREkuPi4j);stroke-width:1.05833" />
  <path
     fill="url(#EbYfY8dFz67vGgREkuPi4k)"
     d="m 29.179761,47.700601 c 0,0.87842 -0.709083,1.5875 -1.5875,1.5875 l -8.053916,-0.0106 c -3.450167,-0.0529 -6.233584,-2.87867 -6.233584,-6.33942 v -2.11667 h 10.054167 c 0.878416,0 1.5875,0.70909 1.5875,1.5875 0,0.87842 -0.709084,1.5875 -1.5875,1.5875 h -0.529167 c -0.582083,0 -1.058333,0.47625 -1.058333,1.05834 0,0.58208 0.47625,1.05833 1.058333,1.05833 h 4.7625 c 0.878417,0 1.5875,0.70908 1.5875,1.5875 z"
     id="path87"
     style="fill:url(#EbYfY8dFz67vGgREkuPi4k);stroke-width:1.05833" />
  <path
     fill="url(#EbYfY8dFz67vGgREkuPi4l)"
     d="m 42.938094,8.5422608 c 0,-0.87841 0.709083,-1.5875 1.5875,-1.5875 h 7.937497 v 8.4666702 h -3.70416 c -0.87842,0 -1.5875,-0.70908 -1.5875,-1.5875 0,-0.87842 0.70908,-1.5875 1.5875,-1.5875 h 0.52916 c 0.58209,0 1.05834,-0.47625 1.05834,-1.05833 0,-0.58209 -0.47625,-1.05834 -1.05834,-1.05834 h -4.762497 c -0.878417,0 -1.5875,-0.7090802 -1.5875,-1.5875002 z"
     id="path102"
     style="fill:url(#EbYfY8dFz67vGgREkuPi4l);stroke-width:1.05833" />
  <path
     fill="url(#EbYfY8dFz67vGgREkuPi4m)"
     d="m 27.063094,6.9547608 h 12.7 V 18.596431 H 26.004761 Z"
     id="path109"
     style="fill:url(#EbYfY8dFz67vGgREkuPi4m);stroke-width:1.05833" />
  <path
     fill="url(#EbYfY8dFz67vGgREkuPi4n)"
     d="M 14.363095,6.9547608 H 27.063094 V 18.596431 H 14.363095 Z"
     id="path116"
     style="fill:url(#EbYfY8dFz67vGgREkuPi4n);stroke-width:1.05833" />
  <path
     fill="url(#EbYfY8dFz67vGgREkuPi4o)"
     d="M 24.417261,37.646431 H 3.2505964 c -1.461558,0 -2.64583306,-1.18427 -2.64583306,-2.64583 v -21.16667 c 0,-1.46156 1.18427506,-2.64583 2.64583306,-2.64583 H 24.417261 c 1.461558,0 2.645833,1.18427 2.645833,2.64583 v 21.16667 c 0,1.46156 -1.184275,2.64583 -2.645833,2.64583 z"
     id="path125"
     style="fill:url(#EbYfY8dFz67vGgREkuPi4o);stroke-width:1.05833" />
  <path
     fill="#ffffff"
     d="m 13.833928,17.008931 c -4.2925997,0 -6.8791647,3.31681 -6.8791647,7.40833 0,4.09152 2.575982,7.40833 6.8791647,7.40833 4.304242,0 6.879166,-3.31681 6.879166,-7.40727 0,-4.09258 -2.586566,-7.40939 -6.879166,-7.40939 z m 0,12.31582 c -2.435225,0 -3.8914917,-2.19604 -3.8914917,-4.90643 0,-2.71039 1.4626167,-4.90643 3.8914917,-4.90643 2.428875,0 3.89255,2.19815 3.89255,4.90643 0,2.70827 -1.458383,4.90643 -3.89255,4.90643 z"
     id="path127"
     style="stroke-width:1.05833" />
</svg>
